STARTFONT 2.1
FONT -FontForge-Saira SemiBold-Demi-R-Normal--11-90-89-89-P-58-ISO10646-1
SIZE 9 89 89
FONTBOUNDINGBOX 16 17 -2 -4
COMMENT "Generated by fontforge, http://fontforge.sourceforge.net"
COMMENT "Copyright 2020 The Saira Project Authors (https://github.com/Omnibus-Type/Saira)"
STARTPROPERTIES 39
FOUNDRY "FontForge"
FAMILY_NAME "Saira SemiBold"
WEIGHT_NAME "Demi"
SLANT "R"
SETWIDTH_NAME "Normal"
ADD_STYLE_NAME ""
PIXEL_SIZE 11
POINT_SIZE 90
RESOLUTION_X 89
RESOLUTION_Y 89
SPACING "P"
AVERAGE_WIDTH 58
CHARSET_REGISTRY "ISO10646"
CHARSET_ENCODING "1"
FONTNAME_REGISTRY ""
CHARSET_COLLECTIONS "ISO8859-2 ISO8859-9 ISO8859-4 Symbol ISO10646-1"
FONT_NAME "Saira-SemiBold"
FACE_NAME "Saira SemiBold"
COPYRIGHT "Copyright 2020 The Saira Project Authors (https://github.com/Omnibus-Type/Saira)"
FONT_VERSION "1.101"
FONT_ASCENT 9
FONT_DESCENT 2
UNDERLINE_POSITION -2
UNDERLINE_THICKNESS 1
X_HEIGHT 5
CAP_HEIGHT 7
RAW_ASCENT 800
RAW_DESCENT 200
NORM_SPACE 3
RELATIVE_WEIGHT 60
RELATIVE_SETWIDTH 50
SUPERSCRIPT_X 0
SUPERSCRIPT_Y 3
SUPERSCRIPT_SIZE 6
SUBSCRIPT_X 0
SUBSCRIPT_Y 0
SUBSCRIPT_SIZE 6
AVG_LOWERCASE_WIDTH 59
AVG_UPPERCASE_WIDTH 73
ENDPROPERTIES
CHARS 893
STARTCHAR CR
ENCODING 13
SWIDTH 247 0
DWIDTH 3 0
BBX 1 1 0 0
BITMAP
00
ENDCHAR
STARTCHAR space
ENCODING 32
SWIDTH 247 0
DWIDTH 3 0
BBX 1 1 0 0
BITMAP
00
ENDCHAR
STARTCHAR exclam
ENCODING 33
SWIDTH 303 0
DWIDTH 3 0
BBX 2 8 1 0
BITMAP
C0
C0
C0
80
80
80
00
C0
ENDCHAR
STARTCHAR quotedbl
ENCODING 34
SWIDTH 431 0
DWIDTH 5 0
BBX 3 3 1 5
BITMAP
A0
A0
A0
ENDCHAR
STARTCHAR numbersign
ENCODING 35
SWIDTH 748 0
DWIDTH 8 0
BBX 6 8 1 0
BITMAP
2C
28
FC
48
48
FC
50
90
ENDCHAR
STARTCHAR dollar
ENCODING 36
SWIDTH 538 0
DWIDTH 6 0
BBX 4 8 1 0
BITMAP
60
F0
F0
E0
F0
70
F0
60
ENDCHAR
STARTCHAR percent
ENCODING 37
SWIDTH 860 0
DWIDTH 9 0
BBX 8 8 1 0
BITMAP
C2
A4
A8
A8
D7
25
25
47
ENDCHAR
STARTCHAR ampersand
ENCODING 38
SWIDTH 737 0
DWIDTH 8 0
BBX 7 8 1 0
BITMAP
78
FC
80
C0
EE
8C
8C
FC
ENDCHAR
STARTCHAR quotesingle
ENCODING 39
SWIDTH 252 0
DWIDTH 3 0
BBX 1 3 1 5
BITMAP
80
80
80
ENDCHAR
STARTCHAR parenleft
ENCODING 40
SWIDTH 339 0
DWIDTH 4 0
BBX 3 10 1 -2
BITMAP
60
C0
80
80
80
80
80
80
40
60
ENDCHAR
STARTCHAR parenright
ENCODING 41
SWIDTH 339 0
DWIDTH 4 0
BBX 3 10 0 -2
BITMAP
C0
40
60
20
20
20
20
60
40
80
ENDCHAR
STARTCHAR asterisk
ENCODING 42
SWIDTH 447 0
DWIDTH 5 0
BBX 4 4 0 4
BITMAP
20
F0
20
F0
ENDCHAR
STARTCHAR plus
ENCODING 43
SWIDTH 540 0
DWIDTH 6 0
BBX 4 4 1 1
BITMAP
60
60
F0
60
ENDCHAR
STARTCHAR comma
ENCODING 44
SWIDTH 273 0
DWIDTH 3 0
BBX 1 3 1 -2
BITMAP
80
80
80
ENDCHAR
STARTCHAR hyphen
ENCODING 45
SWIDTH 369 0
DWIDTH 4 0
BBX 2 1 1 3
BITMAP
C0
ENDCHAR
STARTCHAR period
ENCODING 46
SWIDTH 273 0
DWIDTH 3 0
BBX 1 1 1 0
BITMAP
80
ENDCHAR
STARTCHAR slash
ENCODING 47
SWIDTH 392 0
DWIDTH 4 0
BBX 4 9 0 -1
BITMAP
10
30
20
20
60
40
40
C0
80
ENDCHAR
STARTCHAR zero
ENCODING 48
SWIDTH 666 0
DWIDTH 7 0
BBX 6 8 1 0
BITMAP
70
F8
8C
8C
8C
8C
8C
F8
ENDCHAR
STARTCHAR one
ENCODING 49
SWIDTH 389 0
DWIDTH 4 0
BBX 3 8 0 0
BITMAP
20
E0
A0
20
20
20
20
20
ENDCHAR
STARTCHAR two
ENCODING 50
SWIDTH 611 0
DWIDTH 7 0
BBX 5 8 1 0
BITMAP
F0
F8
18
18
F0
C0
80
F8
ENDCHAR
STARTCHAR three
ENCODING 51
SWIDTH 607 0
DWIDTH 7 0
BBX 5 8 1 0
BITMAP
E0
F8
18
18
70
18
18
F0
ENDCHAR
STARTCHAR four
ENCODING 52
SWIDTH 647 0
DWIDTH 7 0
BBX 7 8 0 0
BITMAP
18
10
30
64
4C
FE
0C
0C
ENDCHAR
STARTCHAR five
ENCODING 53
SWIDTH 623 0
DWIDTH 7 0
BBX 5 8 1 0
BITMAP
F8
F8
80
F0
F8
08
18
F8
ENDCHAR
STARTCHAR six
ENCODING 54
SWIDTH 664 0
DWIDTH 7 0
BBX 6 8 1 0
BITMAP
78
F8
80
B8
FC
8C
8C
F8
ENDCHAR
STARTCHAR seven
ENCODING 55
SWIDTH 569 0
DWIDTH 6 0
BBX 6 8 0 0
BITMAP
FC
FC
08
18
18
30
30
60
ENDCHAR
STARTCHAR eight
ENCODING 56
SWIDTH 682 0
DWIDTH 8 0
BBX 6 8 1 0
BITMAP
70
FC
8C
C8
F8
8C
8C
F8
ENDCHAR
STARTCHAR nine
ENCODING 57
SWIDTH 664 0
DWIDTH 7 0
BBX 6 8 1 0
BITMAP
70
F8
8C
8C
FC
0C
08
F8
ENDCHAR
STARTCHAR colon
ENCODING 58
SWIDTH 273 0
DWIDTH 3 0
BBX 1 6 1 0
BITMAP
80
80
00
00
00
80
ENDCHAR
STARTCHAR semicolon
ENCODING 59
SWIDTH 273 0
DWIDTH 3 0
BBX 1 8 1 -2
BITMAP
80
80
00
00
00
80
80
80
ENDCHAR
STARTCHAR less
ENCODING 60
SWIDTH 541 0
DWIDTH 6 0
BBX 4 5 1 0
BITMAP
10
E0
C0
30
10
ENDCHAR
STARTCHAR equal
ENCODING 61
SWIDTH 540 0
DWIDTH 6 0
BBX 4 3 1 1
BITMAP
F0
00
F0
ENDCHAR
STARTCHAR greater
ENCODING 62
SWIDTH 541 0
DWIDTH 6 0
BBX 4 5 1 0
BITMAP
80
70
30
C0
80
ENDCHAR
STARTCHAR question
ENCODING 63
SWIDTH 511 0
DWIDTH 6 0
BBX 5 8 0 0
BITMAP
70
F8
18
38
20
20
00
60
ENDCHAR
STARTCHAR at
ENCODING 64
SWIDTH 936 0
DWIDTH 10 0
BBX 8 9 1 -1
BITMAP
7E
81
BD
85
9D
A5
BF
80
7C
ENDCHAR
STARTCHAR A
ENCODING 65
SWIDTH 686 0
DWIDTH 8 0
BBX 7 8 0 0
BITMAP
18
38
2C
2C
64
7E
46
C2
ENDCHAR
STARTCHAR B
ENCODING 66
SWIDTH 675 0
DWIDTH 7 0
BBX 6 8 1 0
BITMAP
F0
FC
8C
88
F8
8C
8C
F8
ENDCHAR
STARTCHAR C
ENCODING 67
SWIDTH 571 0
DWIDTH 6 0
BBX 5 8 1 0
BITMAP
78
F8
80
80
80
80
C0
F8
ENDCHAR
STARTCHAR D
ENCODING 68
SWIDTH 683 0
DWIDTH 8 0
BBX 6 8 1 0
BITMAP
F0
FC
8C
8C
8C
8C
8C
F8
ENDCHAR
STARTCHAR E
ENCODING 69
SWIDTH 607 0
DWIDTH 7 0
BBX 5 8 1 0
BITMAP
F8
F8
80
80
F8
80
80
F8
ENDCHAR
STARTCHAR F
ENCODING 70
SWIDTH 569 0
DWIDTH 6 0
BBX 5 8 1 0
BITMAP
F8
F8
80
80
F0
80
80
80
ENDCHAR
STARTCHAR G
ENCODING 71
SWIDTH 669 0
DWIDTH 7 0
BBX 6 8 1 0
BITMAP
78
FC
80
80
9C
8C
CC
7C
ENDCHAR
STARTCHAR H
ENCODING 72
SWIDTH 722 0
DWIDTH 8 0
BBX 6 8 1 0
BITMAP
8C
8C
8C
8C
FC
8C
8C
8C
ENDCHAR
STARTCHAR I
ENCODING 73
SWIDTH 306 0
DWIDTH 3 0
BBX 1 8 1 0
BITMAP
80
80
80
80
80
80
80
80
ENDCHAR
STARTCHAR J
ENCODING 74
SWIDTH 389 0
DWIDTH 4 0
BBX 3 8 0 0
BITMAP
20
20
20
20
20
20
20
E0
ENDCHAR
STARTCHAR K
ENCODING 75
SWIDTH 678 0
DWIDTH 7 0
BBX 6 8 1 0
BITMAP
84
88
98
B0
F0
98
98
8C
ENDCHAR
STARTCHAR L
ENCODING 76
SWIDTH 538 0
DWIDTH 6 0
BBX 5 8 1 0
BITMAP
80
80
80
80
80
80
80
F8
ENDCHAR
STARTCHAR M
ENCODING 77
SWIDTH 899 0
DWIDTH 10 0
BBX 8 8 1 0
BITMAP
C3
C7
E7
A7
BF
BB
9B
9B
ENDCHAR
STARTCHAR N
ENCODING 78
SWIDTH 723 0
DWIDTH 8 0
BBX 6 8 1 0
BITMAP
C4
C4
E4
A4
B4
9C
8C
8C
ENDCHAR
STARTCHAR O
ENCODING 79
SWIDTH 707 0
DWIDTH 8 0
BBX 6 8 1 0
BITMAP
78
FC
8C
84
84
84
CC
F8
ENDCHAR
STARTCHAR P
ENCODING 80
SWIDTH 647 0
DWIDTH 7 0
BBX 6 8 1 0
BITMAP
F0
F8
8C
8C
F8
80
80
80
ENDCHAR
STARTCHAR Q
ENCODING 81
SWIDTH 707 0
DWIDTH 8 0
BBX 6 9 1 -1
BITMAP
78
FC
8C
84
84
A4
DC
F8
0C
ENDCHAR
STARTCHAR R
ENCODING 82
SWIDTH 676 0
DWIDTH 7 0
BBX 6 8 1 0
BITMAP
F0
FC
8C
8C
F8
98
88
8C
ENDCHAR
STARTCHAR S
ENCODING 83
SWIDTH 620 0
DWIDTH 7 0
BBX 5 8 1 0
BITMAP
78
F8
80
E0
F8
08
08
F8
ENDCHAR
STARTCHAR T
ENCODING 84
SWIDTH 582 0
DWIDTH 6 0
BBX 6 8 0 0
BITMAP
FC
FC
30
30
30
30
30
30
ENDCHAR
STARTCHAR U
ENCODING 85
SWIDTH 698 0
DWIDTH 8 0
BBX 6 8 1 0
BITMAP
8C
8C
8C
8C
8C
8C
CC
F8
ENDCHAR
STARTCHAR V
ENCODING 86
SWIDTH 663 0
DWIDTH 7 0
BBX 7 8 0 0
BITMAP
C6
46
44
64
6C
28
38
38
ENDCHAR
STARTCHAR W
ENCODING 87
SWIDTH 989 0
DWIDTH 11 0
BBX 11 8 0 0
BITMAP
C460
4E40
4E40
6AC0
6AC0
7B80
3380
3180
ENDCHAR
STARTCHAR X
ENCODING 88
SWIDTH 679 0
DWIDTH 7 0
BBX 7 8 0 0
BITMAP
C6
66
2C
38
18
3C
6C
C6
ENDCHAR
STARTCHAR Y
ENCODING 89
SWIDTH 624 0
DWIDTH 7 0
BBX 7 8 0 0
BITMAP
C6
44
6C
28
38
10
10
10
ENDCHAR
STARTCHAR Z
ENCODING 90
SWIDTH 611 0
DWIDTH 7 0
BBX 5 8 1 0
BITMAP
F8
F8
18
30
60
C0
C0
F8
ENDCHAR
STARTCHAR bracketleft
ENCODING 91
SWIDTH 366 0
DWIDTH 4 0
BBX 3 10 1 -2
BITMAP
E0
80
80
80
80
80
80
80
80
E0
ENDCHAR
STARTCHAR backslash
ENCODING 92
SWIDTH 392 0
DWIDTH 4 0
BBX 4 9 0 -1
BITMAP
80
40
40
60
20
20
30
10
10
ENDCHAR
STARTCHAR bracketright
ENCODING 93
SWIDTH 366 0
DWIDTH 4 0
BBX 3 10 0 -2
BITMAP
E0
20
20
20
20
20
20
20
20
E0
ENDCHAR
STARTCHAR asciicircum
ENCODING 94
SWIDTH 442 0
DWIDTH 5 0
BBX 5 3 0 5
BITMAP
20
50
D8
ENDCHAR
STARTCHAR underscore
ENCODING 95
SWIDTH 378 0
DWIDTH 4 0
BBX 4 1 0 -2
BITMAP
F0
ENDCHAR
STARTCHAR grave
ENCODING 96
SWIDTH 228 0
DWIDTH 3 0
BBX 3 2 0 6
BITMAP
C0
60
ENDCHAR
STARTCHAR a
ENCODING 97
SWIDTH 565 0
DWIDTH 6 0
BBX 5 6 0 0
BITMAP
70
58
08
78
C8
78
ENDCHAR
STARTCHAR b
ENCODING 98
SWIDTH 585 0
DWIDTH 6 0
BBX 5 8 1 0
BITMAP
80
80
B0
F8
98
98
98
F0
ENDCHAR
STARTCHAR c
ENCODING 99
SWIDTH 462 0
DWIDTH 5 0
BBX 4 6 1 0
BITMAP
70
D0
80
80
80
F0
ENDCHAR
STARTCHAR d
ENCODING 100
SWIDTH 585 0
DWIDTH 6 0
BBX 5 8 1 0
BITMAP
18
18
F8
F8
98
98
98
F8
ENDCHAR
STARTCHAR e
ENCODING 101
SWIDTH 557 0
DWIDTH 6 0
BBX 5 6 1 0
BITMAP
70
D0
98
F8
80
F0
ENDCHAR
STARTCHAR f
ENCODING 102
SWIDTH 404 0
DWIDTH 4 0
BBX 4 8 0 0
BITMAP
30
60
F0
F0
60
60
60
60
ENDCHAR
STARTCHAR g
ENCODING 103
SWIDTH 585 0
DWIDTH 6 0
BBX 5 8 1 -2
BITMAP
F8
F8
98
98
98
F8
18
F0
ENDCHAR
STARTCHAR h
ENCODING 104
SWIDTH 593 0
DWIDTH 7 0
BBX 5 8 1 0
BITMAP
80
80
B0
F8
98
98
98
98
ENDCHAR
STARTCHAR i
ENCODING 105
SWIDTH 275 0
DWIDTH 3 0
BBX 1 8 1 0
BITMAP
80
00
80
80
80
80
80
80
ENDCHAR
STARTCHAR j
ENCODING 106
SWIDTH 275 0
DWIDTH 3 0
BBX 2 10 0 -2
BITMAP
40
00
40
40
40
40
40
40
40
C0
ENDCHAR
STARTCHAR k
ENCODING 107
SWIDTH 558 0
DWIDTH 6 0
BBX 5 8 1 0
BITMAP
80
80
98
B0
A0
E0
B0
98
ENDCHAR
STARTCHAR l
ENCODING 108
SWIDTH 275 0
DWIDTH 3 0
BBX 1 8 1 0
BITMAP
80
80
80
80
80
80
80
80
ENDCHAR
STARTCHAR m
ENCODING 109
SWIDTH 872 0
DWIDTH 10 0
BBX 8 6 1 0
BITMAP
B6
FF
9B
9B
9B
9B
ENDCHAR
STARTCHAR n
ENCODING 110
SWIDTH 593 0
DWIDTH 7 0
BBX 5 6 1 0
BITMAP
B0
F8
98
98
98
98
ENDCHAR
STARTCHAR o
ENCODING 111
SWIDTH 574 0
DWIDTH 6 0
BBX 5 6 1 0
BITMAP
70
F8
98
98
98
F0
ENDCHAR
STARTCHAR p
ENCODING 112
SWIDTH 585 0
DWIDTH 6 0
BBX 5 8 1 -2
BITMAP
B0
F8
98
98
98
F0
80
80
ENDCHAR
STARTCHAR q
ENCODING 113
SWIDTH 586 0
DWIDTH 6 0
BBX 5 8 1 -2
BITMAP
F8
F8
98
98
98
F8
18
18
ENDCHAR
STARTCHAR r
ENCODING 114
SWIDTH 395 0
DWIDTH 4 0
BBX 3 6 1 0
BITMAP
A0
E0
80
80
80
80
ENDCHAR
STARTCHAR s
ENCODING 115
SWIDTH 499 0
DWIDTH 5 0
BBX 5 6 0 0
BITMAP
78
48
C0
78
08
78
ENDCHAR
STARTCHAR t
ENCODING 116
SWIDTH 390 0
DWIDTH 4 0
BBX 4 7 0 0
BITMAP
60
F0
F0
60
60
60
60
ENDCHAR
STARTCHAR u
ENCODING 117
SWIDTH 593 0
DWIDTH 7 0
BBX 5 6 1 0
BITMAP
98
98
98
98
98
F8
ENDCHAR
STARTCHAR v
ENCODING 118
SWIDTH 541 0
DWIDTH 6 0
BBX 6 6 0 0
BITMAP
CC
48
48
78
30
30
ENDCHAR
STARTCHAR w
ENCODING 119
SWIDTH 832 0
DWIDTH 9 0
BBX 9 6 0 0
BITMAP
C980
4D80
5D00
5500
7700
3600
ENDCHAR
STARTCHAR x
ENCODING 120
SWIDTH 558 0
DWIDTH 6 0
BBX 6 6 0 0
BITMAP
CC
68
30
30
78
CC
ENDCHAR
STARTCHAR y
ENCODING 121
SWIDTH 593 0
DWIDTH 7 0
BBX 5 8 1 -2
BITMAP
98
98
98
98
98
F8
18
F0
ENDCHAR
STARTCHAR z
ENCODING 122
SWIDTH 521 0
DWIDTH 6 0
BBX 4 6 1 0
BITMAP
F0
F0
20
40
C0
F0
ENDCHAR
STARTCHAR braceleft
ENCODING 123
SWIDTH 351 0
DWIDTH 4 0
BBX 4 10 0 -2
BITMAP
30
60
60
60
C0
40
60
60
60
30
ENDCHAR
STARTCHAR bar
ENCODING 124
SWIDTH 290 0
DWIDTH 3 0
BBX 1 10 1 -2
BITMAP
80
80
80
80
80
80
80
80
80
80
ENDCHAR
STARTCHAR braceright
ENCODING 125
SWIDTH 351 0
DWIDTH 4 0
BBX 4 10 0 -2
BITMAP
C0
60
60
60
30
60
60
60
40
80
ENDCHAR
STARTCHAR asciitilde
ENCODING 126
SWIDTH 497 0
DWIDTH 5 0
BBX 4 1 1 3
BITMAP
F0
ENDCHAR
STARTCHAR uni00A0
ENCODING 160
SWIDTH 247 0
DWIDTH 3 0
BBX 1 1 0 0
BITMAP
00
ENDCHAR
STARTCHAR exclamdown
ENCODING 161
SWIDTH 290 0
DWIDTH 3 0
BBX 1 8 1 -2
BITMAP
80
80
00
80
80
80
80
80
ENDCHAR
STARTCHAR cent
ENCODING 162
SWIDTH 468 0
DWIDTH 5 0
BBX 4 8 1 0
BITMAP
20
70
F0
A0
A0
A0
F0
20
ENDCHAR
STARTCHAR sterling
ENCODING 163
SWIDTH 599 0
DWIDTH 7 0
BBX 5 8 1 0
BITMAP
38
78
C0
F0
F0
C0
C0
F8
ENDCHAR
STARTCHAR currency
ENCODING 164
SWIDTH 679 0
DWIDTH 7 0
BBX 6 8 1 0
BITMAP
84
FC
C8
C8
C8
C8
F8
84
ENDCHAR
STARTCHAR yen
ENCODING 165
SWIDTH 628 0
DWIDTH 7 0
BBX 7 8 0 0
BITMAP
C6
44
6C
7C
38
7C
10
10
ENDCHAR
STARTCHAR brokenbar
ENCODING 166
SWIDTH 290 0
DWIDTH 3 0
BBX 1 10 1 -2
BITMAP
80
80
80
80
00
00
80
80
80
80
ENDCHAR
STARTCHAR section
ENCODING 167
SWIDTH 692 0
DWIDTH 8 0
BBX 6 10 1 -2
BITMAP
38
78
C0
F8
8C
84
FC
18
18
70
ENDCHAR
STARTCHAR dieresis
ENCODING 168
SWIDTH 320 0
DWIDTH 4 0
BBX 4 1 0 7
BITMAP
B0
ENDCHAR
STARTCHAR copyright
ENCODING 169
SWIDTH 742 0
DWIDTH 8 0
BBX 6 8 1 0
BITMAP
78
84
B4
A4
A4
B4
84
FC
ENDCHAR
STARTCHAR ordfeminine
ENCODING 170
SWIDTH 414 0
DWIDTH 5 0
BBX 4 5 0 3
BITMAP
60
10
70
90
70
ENDCHAR
STARTCHAR guillemotleft
ENCODING 171
SWIDTH 493 0
DWIDTH 5 0
BBX 5 5 0 1
BITMAP
28
50
F0
50
28
ENDCHAR
STARTCHAR logicalnot
ENCODING 172
SWIDTH 539 0
DWIDTH 6 0
BBX 4 2 1 1
BITMAP
F0
10
ENDCHAR
STARTCHAR uni00AD
ENCODING 173
SWIDTH 369 0
DWIDTH 4 0
BBX 2 1 1 3
BITMAP
C0
ENDCHAR
STARTCHAR registered
ENCODING 174
SWIDTH 742 0
DWIDTH 8 0
BBX 6 8 1 0
BITMAP
78
84
B4
CC
B4
CC
84
FC
ENDCHAR
STARTCHAR macron
ENCODING 175
SWIDTH 315 0
DWIDTH 3 0
BBX 3 1 0 7
BITMAP
E0
ENDCHAR
STARTCHAR degree
ENCODING 176
SWIDTH 394 0
DWIDTH 4 0
BBX 3 4 1 4
BITMAP
C0
A0
A0
C0
ENDCHAR
STARTCHAR plusminus
ENCODING 177
SWIDTH 540 0
DWIDTH 6 0
BBX 4 6 1 0
BITMAP
60
F0
60
60
00
F0
ENDCHAR
STARTCHAR uni00B2
ENCODING 178
SWIDTH 353 0
DWIDTH 4 0
BBX 3 4 0 5
BITMAP
E0
20
C0
E0
ENDCHAR
STARTCHAR uni00B3
ENCODING 179
SWIDTH 350 0
DWIDTH 4 0
BBX 3 4 0 5
BITMAP
E0
60
20
E0
ENDCHAR
STARTCHAR acute
ENCODING 180
SWIDTH 228 0
DWIDTH 3 0
BBX 3 2 0 6
BITMAP
60
80
ENDCHAR
STARTCHAR uni00B5
ENCODING 181
SWIDTH 593 0
DWIDTH 7 0
BBX 5 8 1 -2
BITMAP
98
98
98
98
98
F8
80
80
ENDCHAR
STARTCHAR paragraph
ENCODING 182
SWIDTH 620 0
DWIDTH 7 0
BBX 5 10 1 -2
BITMAP
68
E8
E8
E8
E8
68
28
28
28
28
ENDCHAR
STARTCHAR periodcentered
ENCODING 183
SWIDTH 273 0
DWIDTH 3 0
BBX 1 1 1 3
BITMAP
80
ENDCHAR
STARTCHAR cedilla
ENCODING 184
SWIDTH 164 0
DWIDTH 2 0
BBX 2 2 0 -2
BITMAP
40
80
ENDCHAR
STARTCHAR uni00B9
ENCODING 185
SWIDTH 229 0
DWIDTH 3 0
BBX 2 4 0 5
BITMAP
C0
40
40
40
ENDCHAR
STARTCHAR ordmasculine
ENCODING 186
SWIDTH 430 0
DWIDTH 5 0
BBX 4 5 0 3
BITMAP
70
50
D0
50
20
ENDCHAR
STARTCHAR guillemotright
ENCODING 187
SWIDTH 492 0
DWIDTH 5 0
BBX 4 5 1 1
BITMAP
A0
A0
50
F0
A0
ENDCHAR
STARTCHAR onequarter
ENCODING 188
SWIDTH 687 0
DWIDTH 8 0
BBX 7 8 0 0
BITMAP
44
C4
48
50
54
2A
4E
C2
ENDCHAR
STARTCHAR onehalf
ENCODING 189
SWIDTH 738 0
DWIDTH 8 0
BBX 8 8 0 0
BITMAP
44
C4
48
50
57
23
44
C7
ENDCHAR
STARTCHAR threequarters
ENCODING 190
SWIDTH 807 0
DWIDTH 9 0
BBX 9 8 0 0
BITMAP
E100
2200
6400
2500
EA00
1300
1780
2100
ENDCHAR
STARTCHAR questiondown
ENCODING 191
SWIDTH 451 0
DWIDTH 5 0
BBX 4 8 1 -2
BITMAP
20
20
00
20
E0
80
80
F0
ENDCHAR
STARTCHAR Agrave
ENCODING 192
SWIDTH 686 0
DWIDTH 8 0
BBX 7 10 0 0
BITMAP
30
10
18
38
2C
2C
64
7E
46
C2
ENDCHAR
STARTCHAR Aacute
ENCODING 193
SWIDTH 686 0
DWIDTH 8 0
BBX 7 10 0 0
BITMAP
08
10
18
38
2C
2C
64
7E
46
C2
ENDCHAR
STARTCHAR Acircumflex
ENCODING 194
SWIDTH 686 0
DWIDTH 8 0
BBX 7 10 0 0
BITMAP
18
2C
18
38
2C
2C
64
7E
46
C2
ENDCHAR
STARTCHAR Atilde
ENCODING 195
SWIDTH 686 0
DWIDTH 8 0
BBX 7 10 0 0
BITMAP
3C
20
18
38
2C
2C
64
7E
46
C2
ENDCHAR
STARTCHAR Adieresis
ENCODING 196
SWIDTH 686 0
DWIDTH 8 0
BBX 7 10 0 0
BITMAP
2C
00
18
38
2C
2C
64
7E
46
C2
ENDCHAR
STARTCHAR Aring
ENCODING 197
SWIDTH 683 0
DWIDTH 8 0
BBX 7 10 0 0
BITMAP
18
24
18
38
2C
2C
64
7E
46
C2
ENDCHAR
STARTCHAR AE
ENCODING 198
SWIDTH 964 0
DWIDTH 11 0
BBX 10 8 0 0
BITMAP
1FC0
1FC0
3C00
2400
6780
7C00
4600
C7C0
ENDCHAR
STARTCHAR Ccedilla
ENCODING 199
SWIDTH 571 0
DWIDTH 6 0
BBX 5 10 1 -2
BITMAP
78
F8
80
80
80
80
C0
F8
20
60
ENDCHAR
STARTCHAR Egrave
ENCODING 200
SWIDTH 607 0
DWIDTH 7 0
BBX 5 10 1 0
BITMAP
40
20
F8
F8
80
80
F8
80
80
F8
ENDCHAR
STARTCHAR Eacute
ENCODING 201
SWIDTH 607 0
DWIDTH 7 0
BBX 5 10 1 0
BITMAP
30
20
F8
F8
80
80
F8
80
80
F8
ENDCHAR
STARTCHAR Ecircumflex
ENCODING 202
SWIDTH 607 0
DWIDTH 7 0
BBX 5 10 1 0
BITMAP
30
50
F8
F8
80
80
F8
80
80
F8
ENDCHAR
STARTCHAR Edieresis
ENCODING 203
SWIDTH 607 0
DWIDTH 7 0
BBX 5 10 1 0
BITMAP
50
00
F8
F8
80
80
F8
80
80
F8
ENDCHAR
STARTCHAR Igrave
ENCODING 204
SWIDTH 306 0
DWIDTH 3 0
BBX 2 10 0 0
BITMAP
C0
40
40
40
40
40
40
40
40
40
ENDCHAR
STARTCHAR Iacute
ENCODING 205
SWIDTH 306 0
DWIDTH 3 0
BBX 2 10 1 0
BITMAP
40
80
80
80
80
80
80
80
80
80
ENDCHAR
STARTCHAR Icircumflex
ENCODING 206
SWIDTH 306 0
DWIDTH 3 0
BBX 3 10 0 0
BITMAP
60
A0
40
40
40
40
40
40
40
40
ENDCHAR
STARTCHAR Idieresis
ENCODING 207
SWIDTH 306 0
DWIDTH 3 0
BBX 3 10 0 0
BITMAP
A0
00
40
40
40
40
40
40
40
40
ENDCHAR
STARTCHAR Eth
ENCODING 208
SWIDTH 683 0
DWIDTH 8 0
BBX 7 8 0 0
BITMAP
78
7E
46
46
E6
46
46
7C
ENDCHAR
STARTCHAR Ntilde
ENCODING 209
SWIDTH 723 0
DWIDTH 8 0
BBX 6 10 1 0
BITMAP
78
40
C4
C4
E4
A4
B4
9C
8C
8C
ENDCHAR
STARTCHAR Ograve
ENCODING 210
SWIDTH 707 0
DWIDTH 8 0
BBX 6 10 1 0
BITMAP
60
30
78
FC
8C
84
84
84
CC
F8
ENDCHAR
STARTCHAR Oacute
ENCODING 211
SWIDTH 707 0
DWIDTH 8 0
BBX 6 10 1 0
BITMAP
18
20
78
FC
8C
84
84
84
CC
F8
ENDCHAR
STARTCHAR Ocircumflex
ENCODING 212
SWIDTH 707 0
DWIDTH 8 0
BBX 6 10 1 0
BITMAP
30
48
78
FC
8C
84
84
84
CC
F8
ENDCHAR
STARTCHAR Otilde
ENCODING 213
SWIDTH 707 0
DWIDTH 8 0
BBX 6 10 1 0
BITMAP
78
40
78
FC
8C
84
84
84
CC
F8
ENDCHAR
STARTCHAR Odieresis
ENCODING 214
SWIDTH 707 0
DWIDTH 8 0
BBX 6 10 1 0
BITMAP
58
00
78
FC
8C
84
84
84
CC
F8
ENDCHAR
STARTCHAR multiply
ENCODING 215
SWIDTH 501 0
DWIDTH 6 0
BBX 4 4 1 1
BITMAP
A0
F0
60
B0
ENDCHAR
STARTCHAR Oslash
ENCODING 216
SWIDTH 707 0
DWIDTH 8 0
BBX 6 9 1 -1
BITMAP
7C
FC
9C
94
A4
A4
CC
F8
80
ENDCHAR
STARTCHAR Ugrave
ENCODING 217
SWIDTH 698 0
DWIDTH 8 0
BBX 6 10 1 0
BITMAP
60
20
8C
8C
8C
8C
8C
8C
CC
F8
ENDCHAR
STARTCHAR Uacute
ENCODING 218
SWIDTH 698 0
DWIDTH 8 0
BBX 6 10 1 0
BITMAP
18
20
8C
8C
8C
8C
8C
8C
CC
F8
ENDCHAR
STARTCHAR Ucircumflex
ENCODING 219
SWIDTH 698 0
DWIDTH 8 0
BBX 6 10 1 0
BITMAP
30
48
8C
8C
8C
8C
8C
8C
CC
F8
ENDCHAR
STARTCHAR Udieresis
ENCODING 220
SWIDTH 698 0
DWIDTH 8 0
BBX 6 10 1 0
BITMAP
58
00
8C
8C
8C
8C
8C
8C
CC
F8
ENDCHAR
STARTCHAR Yacute
ENCODING 221
SWIDTH 624 0
DWIDTH 7 0
BBX 7 10 0 0
BITMAP
18
10
C6
44
6C
28
38
10
10
10
ENDCHAR
STARTCHAR Thorn
ENCODING 222
SWIDTH 647 0
DWIDTH 7 0
BBX 6 8 1 0
BITMAP
80
80
F8
8C
8C
F8
F0
80
ENDCHAR
STARTCHAR germandbls
ENCODING 223
SWIDTH 604 0
DWIDTH 7 0
BBX 5 8 1 0
BITMAP
F8
98
98
B0
88
88
98
B0
ENDCHAR
STARTCHAR agrave
ENCODING 224
SWIDTH 565 0
DWIDTH 6 0
BBX 5 8 0 0
BITMAP
60
10
70
58
08
78
C8
78
ENDCHAR
STARTCHAR aacute
ENCODING 225
SWIDTH 565 0
DWIDTH 6 0
BBX 5 8 0 0
BITMAP
18
20
70
58
08
78
C8
78
ENDCHAR
STARTCHAR acircumflex
ENCODING 226
SWIDTH 565 0
DWIDTH 6 0
BBX 5 8 0 0
BITMAP
30
48
70
58
08
78
C8
78
ENDCHAR
STARTCHAR atilde
ENCODING 227
SWIDTH 565 0
DWIDTH 6 0
BBX 5 8 0 0
BITMAP
78
40
70
58
08
78
C8
78
ENDCHAR
STARTCHAR adieresis
ENCODING 228
SWIDTH 565 0
DWIDTH 6 0
BBX 5 8 0 0
BITMAP
68
00
70
58
08
78
C8
78
ENDCHAR
STARTCHAR aring
ENCODING 229
SWIDTH 565 0
DWIDTH 6 0
BBX 5 9 0 0
BITMAP
30
48
30
70
58
08
78
C8
78
ENDCHAR
STARTCHAR ae
ENCODING 230
SWIDTH 869 0
DWIDTH 10 0
BBX 9 6 0 0
BITMAP
7700
5D80
0880
7F80
CC00
7780
ENDCHAR
STARTCHAR ccedilla
ENCODING 231
SWIDTH 462 0
DWIDTH 5 0
BBX 4 8 1 -2
BITMAP
70
D0
80
80
80
F0
40
40
ENDCHAR
STARTCHAR egrave
ENCODING 232
SWIDTH 557 0
DWIDTH 6 0
BBX 5 8 1 0
BITMAP
C0
20
70
D0
98
F8
80
F0
ENDCHAR
STARTCHAR eacute
ENCODING 233
SWIDTH 557 0
DWIDTH 6 0
BBX 5 8 1 0
BITMAP
30
40
70
D0
98
F8
80
F0
ENDCHAR
STARTCHAR ecircumflex
ENCODING 234
SWIDTH 557 0
DWIDTH 6 0
BBX 5 8 1 0
BITMAP
60
90
70
D0
98
F8
80
F0
ENDCHAR
STARTCHAR edieresis
ENCODING 235
SWIDTH 557 0
DWIDTH 6 0
BBX 5 8 1 0
BITMAP
D0
00
70
D0
98
F8
80
F0
ENDCHAR
STARTCHAR igrave
ENCODING 236
SWIDTH 275 0
DWIDTH 3 0
BBX 2 8 0 0
BITMAP
C0
40
40
40
40
40
40
40
ENDCHAR
STARTCHAR iacute
ENCODING 237
SWIDTH 275 0
DWIDTH 3 0
BBX 3 8 0 0
BITMAP
60
C0
40
40
40
40
40
40
ENDCHAR
STARTCHAR icircumflex
ENCODING 238
SWIDTH 275 0
DWIDTH 3 0
BBX 3 8 0 0
BITMAP
E0
A0
40
40
40
40
40
40
ENDCHAR
STARTCHAR idieresis
ENCODING 239
SWIDTH 275 0
DWIDTH 3 0
BBX 3 8 0 0
BITMAP
A0
00
40
40
40
40
40
40
ENDCHAR
STARTCHAR eth
ENCODING 240
SWIDTH 577 0
DWIDTH 6 0
BBX 5 8 1 0
BITMAP
78
70
70
D8
98
98
98
F0
ENDCHAR
STARTCHAR ntilde
ENCODING 241
SWIDTH 593 0
DWIDTH 7 0
BBX 5 8 1 0
BITMAP
F0
80
B0
F8
98
98
98
98
ENDCHAR
STARTCHAR ograve
ENCODING 242
SWIDTH 574 0
DWIDTH 6 0
BBX 5 8 1 0
BITMAP
C0
20
70
F8
98
98
98
F0
ENDCHAR
STARTCHAR oacute
ENCODING 243
SWIDTH 574 0
DWIDTH 6 0
BBX 5 8 1 0
BITMAP
30
40
70
F8
98
98
98
F0
ENDCHAR
STARTCHAR ocircumflex
ENCODING 244
SWIDTH 574 0
DWIDTH 6 0
BBX 5 8 1 0
BITMAP
60
90
70
F8
98
98
98
F0
ENDCHAR
STARTCHAR otilde
ENCODING 245
SWIDTH 574 0
DWIDTH 6 0
BBX 5 8 1 0
BITMAP
F0
80
70
F8
98
98
98
F0
ENDCHAR
STARTCHAR odieresis
ENCODING 246
SWIDTH 574 0
DWIDTH 6 0
BBX 5 8 1 0
BITMAP
D0
00
70
F8
98
98
98
F0
ENDCHAR
STARTCHAR divide
ENCODING 247
SWIDTH 540 0
DWIDTH 6 0
BBX 4 5 1 0
BITMAP
60
00
F0
00
60
ENDCHAR
STARTCHAR oslash
ENCODING 248
SWIDTH 574 0
DWIDTH 6 0
BBX 5 7 1 -1
BITMAP
78
F8
B8
F8
D8
F0
80
ENDCHAR
STARTCHAR ugrave
ENCODING 249
SWIDTH 593 0
DWIDTH 7 0
BBX 5 8 1 0
BITMAP
40
20
98
98
98
98
98
F8
ENDCHAR
STARTCHAR uacute
ENCODING 250
SWIDTH 593 0
DWIDTH 7 0
BBX 5 8 1 0
BITMAP
30
40
98
98
98
98
98
F8
ENDCHAR
STARTCHAR ucircumflex
ENCODING 251
SWIDTH 593 0
DWIDTH 7 0
BBX 5 8 1 0
BITMAP
60
50
98
98
98
98
98
F8
ENDCHAR
STARTCHAR udieresis
ENCODING 252
SWIDTH 593 0
DWIDTH 7 0
BBX 5 8 1 0
BITMAP
D0
00
98
98
98
98
98
F8
ENDCHAR
STARTCHAR yacute
ENCODING 253
SWIDTH 593 0
DWIDTH 7 0
BBX 5 10 1 -2
BITMAP
30
40
98
98
98
98
98
F8
18
F0
ENDCHAR
STARTCHAR thorn
ENCODING 254
SWIDTH 585 0
DWIDTH 6 0
BBX 5 10 1 -2
BITMAP
80
80
B0
F8
98
98
98
F0
80
80
ENDCHAR
STARTCHAR ydieresis
ENCODING 255
SWIDTH 593 0
DWIDTH 7 0
BBX 5 10 1 -2
BITMAP
D0
00
98
98
98
98
98
F8
18
F0
ENDCHAR
STARTCHAR Amacron
ENCODING 256
SWIDTH 686 0
DWIDTH 8 0
BBX 7 10 0 0
BITMAP
3C
00
18
38
2C
2C
64
7E
46
C2
ENDCHAR
STARTCHAR amacron
ENCODING 257
SWIDTH 565 0
DWIDTH 6 0
BBX 5 8 0 0
BITMAP
78
00
70
58
08
78
C8
78
ENDCHAR
STARTCHAR Abreve
ENCODING 258
SWIDTH 686 0
DWIDTH 8 0
BBX 7 10 0 0
BITMAP
28
18
18
38
2C
2C
64
7E
46
C2
ENDCHAR
STARTCHAR abreve
ENCODING 259
SWIDTH 565 0
DWIDTH 6 0
BBX 5 8 0 0
BITMAP
48
30
70
58
08
78
C8
78
ENDCHAR
STARTCHAR Aogonek
ENCODING 260
SWIDTH 686 0
DWIDTH 8 0
BBX 7 10 0 -2
BITMAP
18
38
2C
2C
64
7E
46
C2
02
06
ENDCHAR
STARTCHAR aogonek
ENCODING 261
SWIDTH 565 0
DWIDTH 6 0
BBX 5 8 0 -2
BITMAP
70
58
08
78
C8
78
08
08
ENDCHAR
STARTCHAR Cacute
ENCODING 262
SWIDTH 571 0
DWIDTH 6 0
BBX 5 10 1 0
BITMAP
10
20
78
F8
80
80
80
80
C0
F8
ENDCHAR
STARTCHAR cacute
ENCODING 263
SWIDTH 462 0
DWIDTH 5 0
BBX 4 8 1 0
BITMAP
60
40
70
D0
80
80
80
F0
ENDCHAR
STARTCHAR Ccircumflex
ENCODING 264
SWIDTH 571 0
DWIDTH 6 0
BBX 5 10 1 0
BITMAP
30
50
78
F8
80
80
80
80
C0
F8
ENDCHAR
STARTCHAR ccircumflex
ENCODING 265
SWIDTH 462 0
DWIDTH 5 0
BBX 4 8 1 0
BITMAP
60
B0
70
D0
80
80
80
F0
ENDCHAR
STARTCHAR Cdotaccent
ENCODING 266
SWIDTH 571 0
DWIDTH 6 0
BBX 5 10 1 0
BITMAP
20
00
78
F8
80
80
80
80
C0
F8
ENDCHAR
STARTCHAR cdotaccent
ENCODING 267
SWIDTH 462 0
DWIDTH 5 0
BBX 4 8 1 0
BITMAP
40
00
70
D0
80
80
80
F0
ENDCHAR
STARTCHAR Ccaron
ENCODING 268
SWIDTH 571 0
DWIDTH 6 0
BBX 5 10 1 0
BITMAP
50
20
78
F8
80
80
80
80
C0
F8
ENDCHAR
STARTCHAR ccaron
ENCODING 269
SWIDTH 462 0
DWIDTH 5 0
BBX 4 8 1 0
BITMAP
B0
60
70
D0
80
80
80
F0
ENDCHAR
STARTCHAR Dcaron
ENCODING 270
SWIDTH 683 0
DWIDTH 8 0
BBX 6 10 1 0
BITMAP
58
30
F0
FC
8C
8C
8C
8C
8C
F8
ENDCHAR
STARTCHAR dcaron
ENCODING 271
SWIDTH 585 0
DWIDTH 6 0
BBX 6 8 1 0
BITMAP
1C
1C
FC
F8
98
98
98
F8
ENDCHAR
STARTCHAR Dcroat
ENCODING 272
SWIDTH 683 0
DWIDTH 8 0
BBX 7 8 0 0
BITMAP
78
7E
46
46
E6
46
46
7C
ENDCHAR
STARTCHAR dcroat
ENCODING 273
SWIDTH 585 0
DWIDTH 6 0
BBX 5 8 1 0
BITMAP
38
18
F8
F8
98
98
98
F8
ENDCHAR
STARTCHAR Emacron
ENCODING 274
SWIDTH 607 0
DWIDTH 7 0
BBX 5 10 1 0
BITMAP
70
00
F8
F8
80
80
F8
80
80
F8
ENDCHAR
STARTCHAR emacron
ENCODING 275
SWIDTH 557 0
DWIDTH 6 0
BBX 5 8 1 0
BITMAP
F0
00
70
D0
98
F8
80
F0
ENDCHAR
STARTCHAR Ebreve
ENCODING 276
SWIDTH 607 0
DWIDTH 7 0
BBX 5 10 1 0
BITMAP
50
30
F8
F8
80
80
F8
80
80
F8
ENDCHAR
STARTCHAR ebreve
ENCODING 277
SWIDTH 557 0
DWIDTH 6 0
BBX 5 8 1 0
BITMAP
90
60
70
D0
98
F8
80
F0
ENDCHAR
STARTCHAR Edotaccent
ENCODING 278
SWIDTH 607 0
DWIDTH 7 0
BBX 5 10 1 0
BITMAP
20
00
F8
F8
80
80
F8
80
80
F8
ENDCHAR
STARTCHAR edotaccent
ENCODING 279
SWIDTH 557 0
DWIDTH 6 0
BBX 5 8 1 0
BITMAP
20
00
70
D0
98
F8
80
F0
ENDCHAR
STARTCHAR Eogonek
ENCODING 280
SWIDTH 607 0
DWIDTH 7 0
BBX 5 10 1 -2
BITMAP
F8
F8
80
80
F8
80
80
F8
18
18
ENDCHAR
STARTCHAR eogonek
ENCODING 281
SWIDTH 557 0
DWIDTH 6 0
BBX 5 8 1 -2
BITMAP
70
D0
98
F8
80
F0
10
30
ENDCHAR
STARTCHAR Ecaron
ENCODING 282
SWIDTH 607 0
DWIDTH 7 0
BBX 5 10 1 0
BITMAP
50
20
F8
F8
80
80
F8
80
80
F8
ENDCHAR
STARTCHAR ecaron
ENCODING 283
SWIDTH 557 0
DWIDTH 6 0
BBX 5 8 1 0
BITMAP
D0
60
70
D0
98
F8
80
F0
ENDCHAR
STARTCHAR Gcircumflex
ENCODING 284
SWIDTH 669 0
DWIDTH 7 0
BBX 6 10 1 0
BITMAP
30
48
78
FC
80
80
9C
8C
CC
7C
ENDCHAR
STARTCHAR gcircumflex
ENCODING 285
SWIDTH 585 0
DWIDTH 6 0
BBX 5 10 1 -2
BITMAP
60
90
F8
F8
98
98
98
F8
18
F0
ENDCHAR
STARTCHAR Gbreve
ENCODING 286
SWIDTH 669 0
DWIDTH 7 0
BBX 6 10 1 0
BITMAP
48
30
78
FC
80
80
9C
8C
CC
7C
ENDCHAR
STARTCHAR gbreve
ENCODING 287
SWIDTH 585 0
DWIDTH 6 0
BBX 5 10 1 -2
BITMAP
50
60
F8
F8
98
98
98
F8
18
F0
ENDCHAR
STARTCHAR Gdotaccent
ENCODING 288
SWIDTH 669 0
DWIDTH 7 0
BBX 6 10 1 0
BITMAP
30
00
78
FC
80
80
9C
8C
CC
7C
ENDCHAR
STARTCHAR gdotaccent
ENCODING 289
SWIDTH 585 0
DWIDTH 6 0
BBX 5 10 1 -2
BITMAP
20
00
F8
F8
98
98
98
F8
18
F0
ENDCHAR
STARTCHAR uni0122
ENCODING 290
SWIDTH 669 0
DWIDTH 7 0
BBX 6 11 1 -3
BITMAP
78
FC
80
80
9C
8C
CC
7C
00
30
30
ENDCHAR
STARTCHAR uni0123
ENCODING 291
SWIDTH 585 0
DWIDTH 6 0
BBX 5 11 1 -2
BITMAP
20
60
60
F8
F8
98
98
98
F8
18
F0
ENDCHAR
STARTCHAR Hcircumflex
ENCODING 292
SWIDTH 722 0
DWIDTH 8 0
BBX 6 10 1 0
BITMAP
30
48
8C
8C
8C
8C
FC
8C
8C
8C
ENDCHAR
STARTCHAR hcircumflex
ENCODING 293
SWIDTH 593 0
DWIDTH 7 0
BBX 6 10 0 0
BITMAP
E0
A0
40
40
58
7C
4C
4C
4C
4C
ENDCHAR
STARTCHAR Hbar
ENCODING 294
SWIDTH 722 0
DWIDTH 8 0
BBX 6 8 1 0
BITMAP
8C
8C
FC
8C
FC
8C
8C
8C
ENDCHAR
STARTCHAR hbar
ENCODING 295
SWIDTH 593 0
DWIDTH 7 0
BBX 6 8 0 0
BITMAP
F0
40
58
7C
4C
4C
4C
4C
ENDCHAR
STARTCHAR Itilde
ENCODING 296
SWIDTH 306 0
DWIDTH 3 0
BBX 4 10 0 0
BITMAP
F0
80
40
40
40
40
40
40
40
40
ENDCHAR
STARTCHAR itilde
ENCODING 297
SWIDTH 275 0
DWIDTH 3 0
BBX 5 8 -1 0
BITMAP
68
90
20
20
20
20
20
20
ENDCHAR
STARTCHAR Imacron
ENCODING 298
SWIDTH 306 0
DWIDTH 3 0
BBX 3 10 0 0
BITMAP
E0
00
40
40
40
40
40
40
40
40
ENDCHAR
STARTCHAR imacron
ENCODING 299
SWIDTH 275 0
DWIDTH 3 0
BBX 3 8 0 0
BITMAP
E0
00
40
40
40
40
40
40
ENDCHAR
STARTCHAR Ibreve
ENCODING 300
SWIDTH 306 0
DWIDTH 3 0
BBX 3 10 0 0
BITMAP
A0
60
40
40
40
40
40
40
40
40
ENDCHAR
STARTCHAR ibreve
ENCODING 301
SWIDTH 275 0
DWIDTH 3 0
BBX 3 8 0 0
BITMAP
A0
C0
40
40
40
40
40
40
ENDCHAR
STARTCHAR Iogonek
ENCODING 302
SWIDTH 306 0
DWIDTH 3 0
BBX 1 10 1 -2
BITMAP
80
80
80
80
80
80
80
80
80
80
ENDCHAR
STARTCHAR iogonek
ENCODING 303
SWIDTH 275 0
DWIDTH 3 0
BBX 2 10 0 -2
BITMAP
40
00
40
40
40
40
40
40
40
C0
ENDCHAR
STARTCHAR Idotaccent
ENCODING 304
SWIDTH 306 0
DWIDTH 3 0
BBX 1 10 1 0
BITMAP
80
00
80
80
80
80
80
80
80
80
ENDCHAR
STARTCHAR dotlessi
ENCODING 305
SWIDTH 275 0
DWIDTH 3 0
BBX 1 6 1 0
BITMAP
80
80
80
80
80
80
ENDCHAR
STARTCHAR IJ
ENCODING 306
SWIDTH 695 0
DWIDTH 8 0
BBX 6 8 1 0
BITMAP
8C
8C
8C
8C
8C
8C
8C
98
ENDCHAR
STARTCHAR ij
ENCODING 307
SWIDTH 550 0
DWIDTH 6 0
BBX 4 10 1 -2
BITMAP
90
00
90
90
90
90
90
90
10
30
ENDCHAR
STARTCHAR Jcircumflex
ENCODING 308
SWIDTH 389 0
DWIDTH 4 0
BBX 4 10 0 0
BITMAP
30
50
20
20
20
20
20
20
20
E0
ENDCHAR
STARTCHAR jcircumflex
ENCODING 309
SWIDTH 275 0
DWIDTH 3 0
BBX 3 10 0 -2
BITMAP
E0
A0
40
40
40
40
40
40
40
C0
ENDCHAR
STARTCHAR uni0136
ENCODING 310
SWIDTH 678 0
DWIDTH 7 0
BBX 6 11 1 -3
BITMAP
84
88
98
B0
F0
98
98
8C
00
20
20
ENDCHAR
STARTCHAR uni0137
ENCODING 311
SWIDTH 558 0
DWIDTH 6 0
BBX 5 11 1 -3
BITMAP
80
80
98
B0
A0
E0
B0
98
00
60
60
ENDCHAR
STARTCHAR kgreenlandic
ENCODING 312
SWIDTH 558 0
DWIDTH 6 0
BBX 5 6 1 0
BITMAP
98
B0
A0
E0
B0
98
ENDCHAR
STARTCHAR Lacute
ENCODING 313
SWIDTH 538 0
DWIDTH 6 0
BBX 5 10 1 0
BITMAP
40
80
80
80
80
80
80
80
80
F8
ENDCHAR
STARTCHAR lacute
ENCODING 314
SWIDTH 275 0
DWIDTH 3 0
BBX 2 11 1 0
BITMAP
C0
80
00
80
80
80
80
80
80
80
80
ENDCHAR
STARTCHAR uni013B
ENCODING 315
SWIDTH 538 0
DWIDTH 6 0
BBX 5 11 1 -3
BITMAP
80
80
80
80
80
80
80
F8
00
20
20
ENDCHAR
STARTCHAR uni013C
ENCODING 316
SWIDTH 275 0
DWIDTH 3 0
BBX 1 11 1 -3
BITMAP
80
80
80
80
80
80
80
80
00
80
80
ENDCHAR
STARTCHAR Lcaron
ENCODING 317
SWIDTH 538 0
DWIDTH 6 0
BBX 5 8 1 0
BITMAP
90
90
90
80
80
80
80
F8
ENDCHAR
STARTCHAR lcaron
ENCODING 318
SWIDTH 275 0
DWIDTH 3 0
BBX 3 8 1 0
BITMAP
A0
A0
A0
C0
80
80
80
80
ENDCHAR
STARTCHAR Ldot
ENCODING 319
SWIDTH 536 0
DWIDTH 6 0
BBX 5 8 1 0
BITMAP
80
80
80
90
80
80
80
F8
ENDCHAR
STARTCHAR ldot
ENCODING 320
SWIDTH 318 0
DWIDTH 3 0
BBX 3 8 1 0
BITMAP
80
80
80
80
A0
80
80
80
ENDCHAR
STARTCHAR Lslash
ENCODING 321
SWIDTH 538 0
DWIDTH 6 0
BBX 6 8 0 0
BITMAP
40
40
40
70
C0
40
40
7C
ENDCHAR
STARTCHAR lslash
ENCODING 322
SWIDTH 287 0
DWIDTH 3 0
BBX 3 8 0 0
BITMAP
40
40
40
60
C0
40
40
40
ENDCHAR
STARTCHAR Nacute
ENCODING 323
SWIDTH 723 0
DWIDTH 8 0
BBX 6 10 1 0
BITMAP
18
20
C4
C4
E4
A4
B4
9C
8C
8C
ENDCHAR
STARTCHAR nacute
ENCODING 324
SWIDTH 593 0
DWIDTH 7 0
BBX 5 8 1 0
BITMAP
30
40
B0
F8
98
98
98
98
ENDCHAR
STARTCHAR uni0145
ENCODING 325
SWIDTH 723 0
DWIDTH 8 0
BBX 6 11 1 -3
BITMAP
C4
C4
E4
A4
B4
9C
8C
8C
00
30
30
ENDCHAR
STARTCHAR uni0146
ENCODING 326
SWIDTH 593 0
DWIDTH 7 0
BBX 5 9 1 -3
BITMAP
B0
F8
98
98
98
98
00
60
60
ENDCHAR
STARTCHAR Ncaron
ENCODING 327
SWIDTH 723 0
DWIDTH 8 0
BBX 6 10 1 0
BITMAP
78
30
C4
C4
E4
A4
B4
9C
8C
8C
ENDCHAR
STARTCHAR ncaron
ENCODING 328
SWIDTH 593 0
DWIDTH 7 0
BBX 5 8 1 0
BITMAP
D0
60
B0
F8
98
98
98
98
ENDCHAR
STARTCHAR napostrophe
ENCODING 329
SWIDTH 604 0
DWIDTH 7 0
BBX 6 8 0 0
BITMAP
C0
40
D8
7C
4C
4C
4C
4C
ENDCHAR
STARTCHAR Eng
ENCODING 330
SWIDTH 723 0
DWIDTH 8 0
BBX 6 10 1 -2
BITMAP
C4
C4
E4
A4
B4
9C
8C
8C
04
0C
ENDCHAR
STARTCHAR eng
ENCODING 331
SWIDTH 593 0
DWIDTH 7 0
BBX 5 8 1 -2
BITMAP
B0
F8
98
98
98
98
18
38
ENDCHAR
STARTCHAR Omacron
ENCODING 332
SWIDTH 707 0
DWIDTH 8 0
BBX 6 10 1 0
BITMAP
78
00
78
FC
8C
84
84
84
CC
F8
ENDCHAR
STARTCHAR omacron
ENCODING 333
SWIDTH 574 0
DWIDTH 6 0
BBX 5 8 1 0
BITMAP
F0
00
70
F8
98
98
98
F0
ENDCHAR
STARTCHAR Obreve
ENCODING 334
SWIDTH 707 0
DWIDTH 8 0
BBX 6 10 1 0
BITMAP
48
30
78
FC
8C
84
84
84
CC
F8
ENDCHAR
STARTCHAR obreve
ENCODING 335
SWIDTH 574 0
DWIDTH 6 0
BBX 5 8 1 0
BITMAP
90
60
70
F8
98
98
98
F0
ENDCHAR
STARTCHAR Ohungarumlaut
ENCODING 336
SWIDTH 707 0
DWIDTH 8 0
BBX 6 10 1 0
BITMAP
2C
50
78
FC
8C
84
84
84
CC
F8
ENDCHAR
STARTCHAR ohungarumlaut
ENCODING 337
SWIDTH 574 0
DWIDTH 6 0
BBX 5 8 1 0
BITMAP
78
50
70
F8
98
98
98
F0
ENDCHAR
STARTCHAR OE
ENCODING 338
SWIDTH 1015 0
DWIDTH 11 0
BBX 10 8 1 0
BITMAP
3FC0
FFC0
8C00
8400
8780
8400
CC00
FFC0
ENDCHAR
STARTCHAR oe
ENCODING 339
SWIDTH 895 0
DWIDTH 10 0
BBX 8 6 1 0
BITMAP
F6
FB
99
9F
98
FF
ENDCHAR
STARTCHAR Racute
ENCODING 340
SWIDTH 676 0
DWIDTH 7 0
BBX 6 10 1 0
BITMAP
10
20
F0
FC
8C
8C
F8
98
88
8C
ENDCHAR
STARTCHAR racute
ENCODING 341
SWIDTH 395 0
DWIDTH 4 0
BBX 3 8 1 0
BITMAP
60
80
A0
E0
80
80
80
80
ENDCHAR
STARTCHAR uni0156
ENCODING 342
SWIDTH 676 0
DWIDTH 7 0
BBX 6 11 1 -3
BITMAP
F0
FC
8C
8C
F8
98
88
8C
00
20
20
ENDCHAR
STARTCHAR uni0157
ENCODING 343
SWIDTH 395 0
DWIDTH 4 0
BBX 3 9 1 -3
BITMAP
A0
E0
80
80
80
80
00
80
80
ENDCHAR
STARTCHAR Rcaron
ENCODING 344
SWIDTH 676 0
DWIDTH 7 0
BBX 6 10 1 0
BITMAP
50
20
F0
FC
8C
8C
F8
98
88
8C
ENDCHAR
STARTCHAR rcaron
ENCODING 345
SWIDTH 395 0
DWIDTH 4 0
BBX 4 8 0 0
BITMAP
D0
60
50
70
40
40
40
40
ENDCHAR
STARTCHAR Sacute
ENCODING 346
SWIDTH 620 0
DWIDTH 7 0
BBX 5 10 1 0
BITMAP
30
20
78
F8
80
E0
F8
08
08
F8
ENDCHAR
STARTCHAR sacute
ENCODING 347
SWIDTH 499 0
DWIDTH 5 0
BBX 5 8 0 0
BITMAP
30
20
78
48
C0
78
08
78
ENDCHAR
STARTCHAR Scircumflex
ENCODING 348
SWIDTH 620 0
DWIDTH 7 0
BBX 5 10 1 0
BITMAP
60
50
78
F8
80
E0
F8
08
08
F8
ENDCHAR
STARTCHAR scircumflex
ENCODING 349
SWIDTH 499 0
DWIDTH 5 0
BBX 5 8 0 0
BITMAP
30
58
78
48
C0
78
08
78
ENDCHAR
STARTCHAR Scedilla
ENCODING 350
SWIDTH 620 0
DWIDTH 7 0
BBX 5 10 1 -2
BITMAP
78
F8
80
E0
F8
08
08
F8
20
60
ENDCHAR
STARTCHAR scedilla
ENCODING 351
SWIDTH 499 0
DWIDTH 5 0
BBX 5 8 0 -2
BITMAP
78
48
C0
78
08
78
20
60
ENDCHAR
STARTCHAR Scaron
ENCODING 352
SWIDTH 620 0
DWIDTH 7 0
BBX 5 10 1 0
BITMAP
50
20
78
F8
80
E0
F8
08
08
F8
ENDCHAR
STARTCHAR scaron
ENCODING 353
SWIDTH 499 0
DWIDTH 5 0
BBX 5 8 0 0
BITMAP
58
30
78
48
C0
78
08
78
ENDCHAR
STARTCHAR uni0162
ENCODING 354
SWIDTH 582 0
DWIDTH 6 0
BBX 6 10 0 -2
BITMAP
FC
FC
30
30
30
30
30
30
10
20
ENDCHAR
STARTCHAR uni0163
ENCODING 355
SWIDTH 390 0
DWIDTH 4 0
BBX 4 9 0 -2
BITMAP
60
F0
F0
60
60
60
60
40
40
ENDCHAR
STARTCHAR Tcaron
ENCODING 356
SWIDTH 582 0
DWIDTH 6 0
BBX 6 10 0 0
BITMAP
68
30
FC
FC
30
30
30
30
30
30
ENDCHAR
STARTCHAR tcaron
ENCODING 357
SWIDTH 390 0
DWIDTH 4 0
BBX 5 9 0 0
BITMAP
18
18
70
F0
F0
60
60
60
60
ENDCHAR
STARTCHAR Tbar
ENCODING 358
SWIDTH 582 0
DWIDTH 6 0
BBX 6 8 0 0
BITMAP
FC
FC
30
30
FC
30
30
30
ENDCHAR
STARTCHAR tbar
ENCODING 359
SWIDTH 390 0
DWIDTH 4 0
BBX 4 7 0 0
BITMAP
60
F0
F0
60
F0
60
60
ENDCHAR
STARTCHAR Utilde
ENCODING 360
SWIDTH 698 0
DWIDTH 8 0
BBX 6 10 1 0
BITMAP
78
40
8C
8C
8C
8C
8C
8C
CC
F8
ENDCHAR
STARTCHAR utilde
ENCODING 361
SWIDTH 593 0
DWIDTH 7 0
BBX 5 8 1 0
BITMAP
F0
80
98
98
98
98
98
F8
ENDCHAR
STARTCHAR Umacron
ENCODING 362
SWIDTH 698 0
DWIDTH 8 0
BBX 6 10 1 0
BITMAP
78
00
8C
8C
8C
8C
8C
8C
CC
F8
ENDCHAR
STARTCHAR umacron
ENCODING 363
SWIDTH 593 0
DWIDTH 7 0
BBX 5 8 1 0
BITMAP
70
00
98
98
98
98
98
F8
ENDCHAR
STARTCHAR Ubreve
ENCODING 364
SWIDTH 698 0
DWIDTH 8 0
BBX 6 10 1 0
BITMAP
48
30
8C
8C
8C
8C
8C
8C
CC
F8
ENDCHAR
STARTCHAR ubreve
ENCODING 365
SWIDTH 593 0
DWIDTH 7 0
BBX 5 8 1 0
BITMAP
50
60
98
98
98
98
98
F8
ENDCHAR
STARTCHAR Uring
ENCODING 366
SWIDTH 698 0
DWIDTH 8 0
BBX 6 11 1 0
BITMAP
30
50
30
8C
8C
8C
8C
8C
8C
CC
F8
ENDCHAR
STARTCHAR uring
ENCODING 367
SWIDTH 593 0
DWIDTH 7 0
BBX 5 9 1 0
BITMAP
70
50
70
98
98
98
98
98
F8
ENDCHAR
STARTCHAR Uhungarumlaut
ENCODING 368
SWIDTH 698 0
DWIDTH 8 0
BBX 6 10 1 0
BITMAP
2C
50
8C
8C
8C
8C
8C
8C
CC
F8
ENDCHAR
STARTCHAR uhungarumlaut
ENCODING 369
SWIDTH 593 0
DWIDTH 7 0
BBX 5 8 1 0
BITMAP
68
50
98
98
98
98
98
F8
ENDCHAR
STARTCHAR Uogonek
ENCODING 370
SWIDTH 698 0
DWIDTH 8 0
BBX 6 10 1 -2
BITMAP
8C
8C
8C
8C
8C
8C
CC
F8
20
30
ENDCHAR
STARTCHAR uogonek
ENCODING 371
SWIDTH 593 0
DWIDTH 7 0
BBX 5 8 1 -2
BITMAP
98
98
98
98
98
F8
10
18
ENDCHAR
STARTCHAR Wcircumflex
ENCODING 372
SWIDTH 989 0
DWIDTH 11 0
BBX 11 10 0 0
BITMAP
0C00
0A00
C460
4E40
4E40
6AC0
6AC0
7B80
3380
3180
ENDCHAR
STARTCHAR wcircumflex
ENCODING 373
SWIDTH 832 0
DWIDTH 9 0
BBX 9 8 0 0
BITMAP
0C00
1400
C980
4D80
5D00
5500
7700
3600
ENDCHAR
STARTCHAR Ycircumflex
ENCODING 374
SWIDTH 624 0
DWIDTH 7 0
BBX 7 10 0 0
BITMAP
30
28
C6
44
6C
28
38
10
10
10
ENDCHAR
STARTCHAR ycircumflex
ENCODING 375
SWIDTH 593 0
DWIDTH 7 0
BBX 5 10 1 -2
BITMAP
60
50
98
98
98
98
98
F8
18
F0
ENDCHAR
STARTCHAR Ydieresis
ENCODING 376
SWIDTH 624 0
DWIDTH 7 0
BBX 7 10 0 0
BITMAP
28
00
C6
44
6C
28
38
10
10
10
ENDCHAR
STARTCHAR Zacute
ENCODING 377
SWIDTH 611 0
DWIDTH 7 0
BBX 5 10 1 0
BITMAP
30
20
F8
F8
18
30
60
C0
C0
F8
ENDCHAR
STARTCHAR zacute
ENCODING 378
SWIDTH 521 0
DWIDTH 6 0
BBX 4 8 1 0
BITMAP
20
40
F0
F0
20
40
C0
F0
ENDCHAR
STARTCHAR Zdotaccent
ENCODING 379
SWIDTH 611 0
DWIDTH 7 0
BBX 5 10 1 0
BITMAP
20
00
F8
F8
18
30
60
C0
C0
F8
ENDCHAR
STARTCHAR zdotaccent
ENCODING 380
SWIDTH 521 0
DWIDTH 6 0
BBX 4 8 1 0
BITMAP
60
00
F0
F0
20
40
C0
F0
ENDCHAR
STARTCHAR Zcaron
ENCODING 381
SWIDTH 611 0
DWIDTH 7 0
BBX 5 10 1 0
BITMAP
50
20
F8
F8
18
30
60
C0
C0
F8
ENDCHAR
STARTCHAR zcaron
ENCODING 382
SWIDTH 521 0
DWIDTH 6 0
BBX 4 8 1 0
BITMAP
F0
60
F0
F0
20
40
C0
F0
ENDCHAR
STARTCHAR longs
ENCODING 383
SWIDTH 384 0
DWIDTH 4 0
BBX 4 8 0 0
BITMAP
30
60
E0
E0
60
60
60
60
ENDCHAR
STARTCHAR uni018F
ENCODING 399
SWIDTH 690 0
DWIDTH 8 0
BBX 6 8 1 0
BITMAP
70
7C
0C
0C
FC
8C
8C
F8
ENDCHAR
STARTCHAR florin
ENCODING 402
SWIDTH 461 0
DWIDTH 5 0
BBX 6 10 -1 -2
BITMAP
1C
10
3C
78
30
30
20
20
60
C0
ENDCHAR
STARTCHAR uni019D
ENCODING 413
SWIDTH 723 0
DWIDTH 8 0
BBX 7 10 0 -2
BITMAP
62
62
72
52
5A
4E
46
46
40
C0
ENDCHAR
STARTCHAR Ohorn
ENCODING 416
SWIDTH 707 0
DWIDTH 8 0
BBX 6 9 1 0
BITMAP
04
7C
FC
8C
84
84
84
CC
F8
ENDCHAR
STARTCHAR ohorn
ENCODING 417
SWIDTH 574 0
DWIDTH 6 0
BBX 5 7 1 0
BITMAP
08
78
F8
98
98
98
F0
ENDCHAR
STARTCHAR Uhorn
ENCODING 431
SWIDTH 698 0
DWIDTH 8 0
BBX 7 9 1 0
BITMAP
02
8E
8C
8C
8C
8C
8C
CC
F8
ENDCHAR
STARTCHAR uhorn
ENCODING 432
SWIDTH 593 0
DWIDTH 7 0
BBX 6 7 1 0
BITMAP
04
9C
98
98
98
98
F8
ENDCHAR
STARTCHAR uni01C4
ENCODING 452
SWIDTH 1294 0
DWIDTH 14 0
BBX 13 10 1 0
BITMAP
00B0
0060
F1F8
FDF8
8C30
8C60
8C60
8CC0
8D80
F9F8
ENDCHAR
STARTCHAR uni01C5
ENCODING 453
SWIDTH 1204 0
DWIDTH 13 0
BBX 12 8 1 0
BITMAP
F0A0
FC40
8DF0
8DF0
8C60
8CC0
8D80
F9F0
ENDCHAR
STARTCHAR uni01C6
ENCODING 454
SWIDTH 1105 0
DWIDTH 12 0
BBX 11 8 1 0
BITMAP
1940
1880
FBE0
FBE0
98C0
9980
9B00
FBE0
ENDCHAR
STARTCHAR uni01C7
ENCODING 455
SWIDTH 927 0
DWIDTH 10 0
BBX 8 8 1 0
BITMAP
81
81
81
81
81
81
81
FF
ENDCHAR
STARTCHAR uni01C8
ENCODING 456
SWIDTH 813 0
DWIDTH 9 0
BBX 7 10 1 -2
BITMAP
82
80
82
82
82
82
82
FA
02
06
ENDCHAR
STARTCHAR uni01C9
ENCODING 457
SWIDTH 550 0
DWIDTH 6 0
BBX 4 10 1 -2
BITMAP
90
80
90
90
90
90
90
90
10
30
ENDCHAR
STARTCHAR uni01CA
ENCODING 458
SWIDTH 1112 0
DWIDTH 12 0
BBX 10 8 1 0
BITMAP
C440
C440
E440
A440
B440
9C40
8C40
8DC0
ENDCHAR
STARTCHAR uni01CB
ENCODING 459
SWIDTH 998 0
DWIDTH 11 0
BBX 9 10 1 -2
BITMAP
C480
C400
E480
A480
B480
9C80
8C80
8C80
0080
0180
ENDCHAR
STARTCHAR uni01CC
ENCODING 460
SWIDTH 868 0
DWIDTH 10 0
BBX 8 10 1 -2
BITMAP
03
00
B3
FB
9B
9B
9B
9B
03
07
ENDCHAR
STARTCHAR uni01CD
ENCODING 461
SWIDTH 686 0
DWIDTH 8 0
BBX 7 10 0 0
BITMAP
2C
18
18
38
2C
2C
64
7E
46
C2
ENDCHAR
STARTCHAR uni01CE
ENCODING 462
SWIDTH 565 0
DWIDTH 6 0
BBX 5 8 0 0
BITMAP
68
30
70
58
08
78
C8
78
ENDCHAR
STARTCHAR uni01CF
ENCODING 463
SWIDTH 306 0
DWIDTH 3 0
BBX 3 10 0 0
BITMAP
A0
40
40
40
40
40
40
40
40
40
ENDCHAR
STARTCHAR uni01D0
ENCODING 464
SWIDTH 275 0
DWIDTH 3 0
BBX 3 8 0 0
BITMAP
A0
40
40
40
40
40
40
40
ENDCHAR
STARTCHAR uni01D1
ENCODING 465
SWIDTH 707 0
DWIDTH 8 0
BBX 6 10 1 0
BITMAP
78
30
78
FC
8C
84
84
84
CC
F8
ENDCHAR
STARTCHAR uni01D2
ENCODING 466
SWIDTH 574 0
DWIDTH 6 0
BBX 5 8 1 0
BITMAP
D0
60
70
F8
98
98
98
F0
ENDCHAR
STARTCHAR uni01D3
ENCODING 467
SWIDTH 698 0
DWIDTH 8 0
BBX 6 10 1 0
BITMAP
58
30
8C
8C
8C
8C
8C
8C
CC
F8
ENDCHAR
STARTCHAR uni01D4
ENCODING 468
SWIDTH 593 0
DWIDTH 7 0
BBX 5 8 1 0
BITMAP
D0
60
98
98
98
98
98
F8
ENDCHAR
STARTCHAR uni01D5
ENCODING 469
SWIDTH 698 0
DWIDTH 8 0
BBX 6 12 1 0
BITMAP
78
00
58
00
8C
8C
8C
8C
8C
8C
CC
F8
ENDCHAR
STARTCHAR uni01D6
ENCODING 470
SWIDTH 593 0
DWIDTH 7 0
BBX 5 10 1 0
BITMAP
70
00
D0
00
98
98
98
98
98
F8
ENDCHAR
STARTCHAR uni01D7
ENCODING 471
SWIDTH 698 0
DWIDTH 8 0
BBX 6 12 1 0
BITMAP
18
20
58
00
8C
8C
8C
8C
8C
8C
CC
F8
ENDCHAR
STARTCHAR uni01D8
ENCODING 472
SWIDTH 593 0
DWIDTH 7 0
BBX 5 10 1 0
BITMAP
30
40
D0
00
98
98
98
98
98
F8
ENDCHAR
STARTCHAR uni01D9
ENCODING 473
SWIDTH 698 0
DWIDTH 8 0
BBX 6 12 1 0
BITMAP
58
30
58
00
8C
8C
8C
8C
8C
8C
CC
F8
ENDCHAR
STARTCHAR uni01DA
ENCODING 474
SWIDTH 593 0
DWIDTH 7 0
BBX 5 10 1 0
BITMAP
D0
60
D0
00
98
98
98
98
98
F8
ENDCHAR
STARTCHAR uni01DB
ENCODING 475
SWIDTH 698 0
DWIDTH 8 0
BBX 6 12 1 0
BITMAP
60
20
58
00
8C
8C
8C
8C
8C
8C
CC
F8
ENDCHAR
STARTCHAR uni01DC
ENCODING 476
SWIDTH 593 0
DWIDTH 7 0
BBX 5 10 1 0
BITMAP
40
20
D0
00
98
98
98
98
98
F8
ENDCHAR
STARTCHAR Gcaron
ENCODING 486
SWIDTH 669 0
DWIDTH 7 0
BBX 6 10 1 0
BITMAP
78
30
78
FC
80
80
9C
8C
CC
7C
ENDCHAR
STARTCHAR gcaron
ENCODING 487
SWIDTH 585 0
DWIDTH 6 0
BBX 5 10 1 -2
BITMAP
D0
60
F8
F8
98
98
98
F8
18
F0
ENDCHAR
STARTCHAR uni01EA
ENCODING 490
SWIDTH 707 0
DWIDTH 8 0
BBX 6 10 1 -2
BITMAP
78
FC
8C
84
84
84
CC
F8
20
30
ENDCHAR
STARTCHAR uni01EB
ENCODING 491
SWIDTH 574 0
DWIDTH 6 0
BBX 5 8 1 -2
BITMAP
70
F8
98
98
98
F0
40
60
ENDCHAR
STARTCHAR uni01F1
ENCODING 497
SWIDTH 1294 0
DWIDTH 14 0
BBX 13 8 1 0
BITMAP
F1F8
FDF8
8C30
8C60
8C60
8CC0
8D80
F9F8
ENDCHAR
STARTCHAR uni01F2
ENCODING 498
SWIDTH 1204 0
DWIDTH 13 0
BBX 12 8 1 0
BITMAP
F000
FC00
8DF0
8DF0
8C60
8CC0
8D80
F9F0
ENDCHAR
STARTCHAR uni01F3
ENCODING 499
SWIDTH 1105 0
DWIDTH 12 0
BBX 11 8 1 0
BITMAP
1800
1800
FBE0
FBE0
98C0
9980
9B00
FBE0
ENDCHAR
STARTCHAR uni01F4
ENCODING 500
SWIDTH 669 0
DWIDTH 7 0
BBX 6 10 1 0
BITMAP
18
20
78
FC
80
80
9C
8C
CC
7C
ENDCHAR
STARTCHAR uni01F5
ENCODING 501
SWIDTH 585 0
DWIDTH 6 0
BBX 5 10 1 -2
BITMAP
30
40
F8
F8
98
98
98
F8
18
F0
ENDCHAR
STARTCHAR Aringacute
ENCODING 506
SWIDTH 683 0
DWIDTH 8 0
BBX 7 11 0 0
BITMAP
0C
18
24
18
38
2C
2C
64
7E
46
C2
ENDCHAR
STARTCHAR aringacute
ENCODING 507
SWIDTH 565 0
DWIDTH 6 0
BBX 5 11 0 0
BITMAP
18
20
30
48
30
70
58
08
78
C8
78
ENDCHAR
STARTCHAR AEacute
ENCODING 508
SWIDTH 964 0
DWIDTH 11 0
BBX 10 10 0 0
BITMAP
0600
0400
1FC0
1FC0
3C00
2400
6780
7C00
4600
C7C0
ENDCHAR
STARTCHAR aeacute
ENCODING 509
SWIDTH 869 0
DWIDTH 10 0
BBX 9 8 0 0
BITMAP
0C00
0800
7700
5D80
0880
7F80
CC00
7780
ENDCHAR
STARTCHAR Oslashacute
ENCODING 510
SWIDTH 707 0
DWIDTH 8 0
BBX 6 11 1 -1
BITMAP
18
20
7C
FC
9C
94
A4
A4
CC
F8
80
ENDCHAR
STARTCHAR oslashacute
ENCODING 511
SWIDTH 574 0
DWIDTH 6 0
BBX 5 9 1 -1
BITMAP
30
48
70
F8
B8
F8
D8
F0
80
ENDCHAR
STARTCHAR uni0200
ENCODING 512
SWIDTH 686 0
DWIDTH 8 0
BBX 7 10 0 0
BITMAP
78
28
18
38
2C
2C
64
7E
46
C2
ENDCHAR
STARTCHAR uni0201
ENCODING 513
SWIDTH 565 0
DWIDTH 6 0
BBX 5 8 0 0
BITMAP
50
28
70
58
08
78
C8
78
ENDCHAR
STARTCHAR uni0202
ENCODING 514
SWIDTH 686 0
DWIDTH 8 0
BBX 7 10 0 0
BITMAP
38
28
18
38
2C
2C
64
7E
46
C2
ENDCHAR
STARTCHAR uni0203
ENCODING 515
SWIDTH 565 0
DWIDTH 6 0
BBX 5 8 0 0
BITMAP
38
48
70
58
08
78
C8
78
ENDCHAR
STARTCHAR uni0204
ENCODING 516
SWIDTH 607 0
DWIDTH 7 0
BBX 5 10 1 0
BITMAP
B0
50
F8
F8
80
80
F8
80
80
F8
ENDCHAR
STARTCHAR uni0205
ENCODING 517
SWIDTH 557 0
DWIDTH 6 0
BBX 5 8 1 0
BITMAP
A0
50
70
D0
98
F8
80
F0
ENDCHAR
STARTCHAR uni0206
ENCODING 518
SWIDTH 607 0
DWIDTH 7 0
BBX 5 10 1 0
BITMAP
70
50
F8
F8
80
80
F8
80
80
F8
ENDCHAR
STARTCHAR uni0207
ENCODING 519
SWIDTH 557 0
DWIDTH 6 0
BBX 5 8 1 0
BITMAP
70
90
70
D0
98
F8
80
F0
ENDCHAR
STARTCHAR uni0208
ENCODING 520
SWIDTH 306 0
DWIDTH 3 0
BBX 4 10 -1 0
BITMAP
F0
50
20
20
20
20
20
20
20
20
ENDCHAR
STARTCHAR uni0209
ENCODING 521
SWIDTH 275 0
DWIDTH 3 0
BBX 4 8 -1 0
BITMAP
A0
50
20
20
20
20
20
20
ENDCHAR
STARTCHAR uni020A
ENCODING 522
SWIDTH 306 0
DWIDTH 3 0
BBX 3 10 0 0
BITMAP
E0
A0
40
40
40
40
40
40
40
40
ENDCHAR
STARTCHAR uni020B
ENCODING 523
SWIDTH 275 0
DWIDTH 3 0
BBX 3 8 0 0
BITMAP
E0
A0
40
40
40
40
40
40
ENDCHAR
STARTCHAR uni020C
ENCODING 524
SWIDTH 707 0
DWIDTH 8 0
BBX 6 10 1 0
BITMAP
F0
48
78
FC
8C
84
84
84
CC
F8
ENDCHAR
STARTCHAR uni020D
ENCODING 525
SWIDTH 574 0
DWIDTH 6 0
BBX 5 8 1 0
BITMAP
A0
50
70
F8
98
98
98
F0
ENDCHAR
STARTCHAR uni020E
ENCODING 526
SWIDTH 707 0
DWIDTH 8 0
BBX 6 10 1 0
BITMAP
70
48
78
FC
8C
84
84
84
CC
F8
ENDCHAR
STARTCHAR uni020F
ENCODING 527
SWIDTH 574 0
DWIDTH 6 0
BBX 5 8 1 0
BITMAP
70
90
70
F8
98
98
98
F0
ENDCHAR
STARTCHAR uni0210
ENCODING 528
SWIDTH 676 0
DWIDTH 7 0
BBX 6 10 1 0
BITMAP
F0
50
F0
FC
8C
8C
F8
98
88
8C
ENDCHAR
STARTCHAR uni0211
ENCODING 529
SWIDTH 395 0
DWIDTH 4 0
BBX 4 8 0 0
BITMAP
A0
50
50
70
40
40
40
40
ENDCHAR
STARTCHAR uni0212
ENCODING 530
SWIDTH 676 0
DWIDTH 7 0
BBX 6 10 1 0
BITMAP
70
50
F0
FC
8C
8C
F8
98
88
8C
ENDCHAR
STARTCHAR uni0213
ENCODING 531
SWIDTH 395 0
DWIDTH 4 0
BBX 3 8 1 0
BITMAP
E0
A0
A0
E0
80
80
80
80
ENDCHAR
STARTCHAR uni0214
ENCODING 532
SWIDTH 698 0
DWIDTH 8 0
BBX 6 10 1 0
BITMAP
F0
48
8C
8C
8C
8C
8C
8C
CC
F8
ENDCHAR
STARTCHAR uni0215
ENCODING 533
SWIDTH 593 0
DWIDTH 7 0
BBX 5 8 1 0
BITMAP
A0
50
98
98
98
98
98
F8
ENDCHAR
STARTCHAR uni0216
ENCODING 534
SWIDTH 698 0
DWIDTH 8 0
BBX 6 10 1 0
BITMAP
70
48
8C
8C
8C
8C
8C
8C
CC
F8
ENDCHAR
STARTCHAR uni0217
ENCODING 535
SWIDTH 593 0
DWIDTH 7 0
BBX 5 8 1 0
BITMAP
70
50
98
98
98
98
98
F8
ENDCHAR
STARTCHAR uni0218
ENCODING 536
SWIDTH 620 0
DWIDTH 7 0
BBX 5 11 1 -3
BITMAP
78
F8
80
E0
F8
08
08
F8
00
20
20
ENDCHAR
STARTCHAR uni0219
ENCODING 537
SWIDTH 499 0
DWIDTH 5 0
BBX 5 9 0 -3
BITMAP
78
48
C0
78
08
78
00
30
30
ENDCHAR
STARTCHAR uni021A
ENCODING 538
SWIDTH 582 0
DWIDTH 6 0
BBX 6 11 0 -3
BITMAP
FC
FC
30
30
30
30
30
30
00
30
30
ENDCHAR
STARTCHAR uni021B
ENCODING 539
SWIDTH 390 0
DWIDTH 4 0
BBX 4 10 0 -3
BITMAP
60
F0
F0
60
60
60
60
00
60
60
ENDCHAR
STARTCHAR uni022A
ENCODING 554
SWIDTH 707 0
DWIDTH 8 0
BBX 6 12 1 0
BITMAP
78
00
58
00
78
FC
8C
84
84
84
CC
F8
ENDCHAR
STARTCHAR uni022B
ENCODING 555
SWIDTH 574 0
DWIDTH 6 0
BBX 5 10 1 0
BITMAP
F0
00
D0
00
70
F8
98
98
98
F0
ENDCHAR
STARTCHAR uni022C
ENCODING 556
SWIDTH 707 0
DWIDTH 8 0
BBX 6 12 1 0
BITMAP
78
00
78
40
78
FC
8C
84
84
84
CC
F8
ENDCHAR
STARTCHAR uni022D
ENCODING 557
SWIDTH 574 0
DWIDTH 6 0
BBX 5 10 1 0
BITMAP
F0
00
F0
80
70
F8
98
98
98
F0
ENDCHAR
STARTCHAR uni0230
ENCODING 560
SWIDTH 707 0
DWIDTH 8 0
BBX 6 12 1 0
BITMAP
78
00
30
00
78
FC
8C
84
84
84
CC
F8
ENDCHAR
STARTCHAR uni0231
ENCODING 561
SWIDTH 574 0
DWIDTH 6 0
BBX 5 10 1 0
BITMAP
F0
00
20
00
70
F8
98
98
98
F0
ENDCHAR
STARTCHAR uni0232
ENCODING 562
SWIDTH 624 0
DWIDTH 7 0
BBX 7 10 0 0
BITMAP
38
00
C6
44
6C
28
38
10
10
10
ENDCHAR
STARTCHAR uni0233
ENCODING 563
SWIDTH 593 0
DWIDTH 7 0
BBX 5 10 1 -2
BITMAP
70
00
98
98
98
98
98
F8
18
F0
ENDCHAR
STARTCHAR uni0237
ENCODING 567
SWIDTH 275 0
DWIDTH 3 0
BBX 2 8 0 -2
BITMAP
40
40
40
40
40
40
40
C0
ENDCHAR
STARTCHAR uni0259
ENCODING 601
SWIDTH 557 0
DWIDTH 6 0
BBX 5 6 1 0
BITMAP
E0
B0
18
F8
90
F0
ENDCHAR
STARTCHAR uni0272
ENCODING 626
SWIDTH 593 0
DWIDTH 7 0
BBX 6 8 0 -2
BITMAP
58
7C
4C
4C
4C
4C
40
C0
ENDCHAR
STARTCHAR uni02B9
ENCODING 697
SWIDTH 144 0
DWIDTH 2 0
BBX 2 4 0 4
BITMAP
C0
C0
80
80
ENDCHAR
STARTCHAR uni02BA
ENCODING 698
SWIDTH 329 0
DWIDTH 4 0
BBX 4 4 0 4
BITMAP
F0
F0
A0
A0
ENDCHAR
STARTCHAR uni02BC
ENCODING 700
SWIDTH 149 0
DWIDTH 2 0
BBX 2 2 0 6
BITMAP
C0
C0
ENDCHAR
STARTCHAR circumflex
ENCODING 710
SWIDTH 321 0
DWIDTH 4 0
BBX 4 2 0 6
BITMAP
60
B0
ENDCHAR
STARTCHAR caron
ENCODING 711
SWIDTH 321 0
DWIDTH 4 0
BBX 4 2 0 6
BITMAP
B0
60
ENDCHAR
STARTCHAR uni02C9
ENCODING 713
SWIDTH 315 0
DWIDTH 3 0
BBX 3 1 0 7
BITMAP
E0
ENDCHAR
STARTCHAR breve
ENCODING 728
SWIDTH 295 0
DWIDTH 3 0
BBX 3 2 0 6
BITMAP
A0
60
ENDCHAR
STARTCHAR dotaccent
ENCODING 729
SWIDTH 113 0
DWIDTH 1 0
BBX 1 1 0 7
BITMAP
80
ENDCHAR
STARTCHAR ring
ENCODING 730
SWIDTH 283 0
DWIDTH 3 0
BBX 3 3 0 6
BITMAP
E0
A0
E0
ENDCHAR
STARTCHAR ogonek
ENCODING 731
SWIDTH 175 0
DWIDTH 2 0
BBX 2 2 0 -2
BITMAP
C0
C0
ENDCHAR
STARTCHAR tilde
ENCODING 732
SWIDTH 364 0
DWIDTH 4 0
BBX 4 2 0 6
BITMAP
F0
80
ENDCHAR
STARTCHAR hungarumlaut
ENCODING 733
SWIDTH 387 0
DWIDTH 4 0
BBX 4 2 0 6
BITMAP
50
A0
ENDCHAR
STARTCHAR gravecomb
ENCODING 768
SWIDTH 0 0
DWIDTH 0 0
BBX 3 2 0 6
BITMAP
C0
60
ENDCHAR
STARTCHAR acutecomb
ENCODING 769
SWIDTH 0 0
DWIDTH 0 0
BBX 3 2 0 6
BITMAP
60
80
ENDCHAR
STARTCHAR uni0302
ENCODING 770
SWIDTH 0 0
DWIDTH 0 0
BBX 4 2 0 6
BITMAP
60
B0
ENDCHAR
STARTCHAR tildecomb
ENCODING 771
SWIDTH 0 0
DWIDTH 0 0
BBX 4 2 0 6
BITMAP
F0
80
ENDCHAR
STARTCHAR uni0304
ENCODING 772
SWIDTH 0 0
DWIDTH 0 0
BBX 3 1 0 7
BITMAP
E0
ENDCHAR
STARTCHAR uni0306
ENCODING 774
SWIDTH 0 0
DWIDTH 0 0
BBX 3 2 0 6
BITMAP
A0
60
ENDCHAR
STARTCHAR uni0307
ENCODING 775
SWIDTH 0 0
DWIDTH 0 0
BBX 1 1 0 7
BITMAP
80
ENDCHAR
STARTCHAR uni0308
ENCODING 776
SWIDTH 0 0
DWIDTH 0 0
BBX 4 1 0 7
BITMAP
B0
ENDCHAR
STARTCHAR hookabovecomb
ENCODING 777
SWIDTH 0 0
DWIDTH 0 0
BBX 3 3 0 6
BITMAP
C0
20
40
ENDCHAR
STARTCHAR uni030A
ENCODING 778
SWIDTH 0 0
DWIDTH 0 0
BBX 3 3 0 6
BITMAP
E0
A0
E0
ENDCHAR
STARTCHAR uni030B
ENCODING 779
SWIDTH 0 0
DWIDTH 0 0
BBX 4 2 0 6
BITMAP
50
A0
ENDCHAR
STARTCHAR uni030C
ENCODING 780
SWIDTH 0 0
DWIDTH 0 0
BBX 4 2 0 6
BITMAP
B0
60
ENDCHAR
STARTCHAR uni030F
ENCODING 783
SWIDTH 0 0
DWIDTH 0 0
BBX 4 2 0 6
BITMAP
B0
50
ENDCHAR
STARTCHAR uni0311
ENCODING 785
SWIDTH 0 0
DWIDTH 0 0
BBX 3 2 0 6
BITMAP
E0
A0
ENDCHAR
STARTCHAR uni0312
ENCODING 786
SWIDTH 0 0
DWIDTH 0 0
BBX 2 3 0 6
BITMAP
C0
C0
C0
ENDCHAR
STARTCHAR uni031B
ENCODING 795
SWIDTH 0 0
DWIDTH 0 0
BBX 2 2 0 5
BITMAP
40
C0
ENDCHAR
STARTCHAR dotbelowcomb
ENCODING 803
SWIDTH 0 0
DWIDTH 0 0
BBX 1 1 0 -2
BITMAP
80
ENDCHAR
STARTCHAR uni0324
ENCODING 804
SWIDTH 0 0
DWIDTH 0 0
BBX 4 1 0 -2
BITMAP
B0
ENDCHAR
STARTCHAR uni0326
ENCODING 806
SWIDTH 0 0
DWIDTH 0 0
BBX 2 2 0 -3
BITMAP
C0
C0
ENDCHAR
STARTCHAR uni0327
ENCODING 807
SWIDTH 0 0
DWIDTH 0 0
BBX 2 2 0 -2
BITMAP
40
80
ENDCHAR
STARTCHAR uni0328
ENCODING 808
SWIDTH 0 0
DWIDTH 0 0
BBX 2 2 0 -2
BITMAP
C0
C0
ENDCHAR
STARTCHAR uni032E
ENCODING 814
SWIDTH 0 0
DWIDTH 0 0
BBX 3 2 0 -3
BITMAP
A0
40
ENDCHAR
STARTCHAR uni0331
ENCODING 817
SWIDTH 0 0
DWIDTH 0 0
BBX 3 1 0 -2
BITMAP
E0
ENDCHAR
STARTCHAR uni0335
ENCODING 821
SWIDTH 0 0
DWIDTH 0 0
BBX 3 1 0 3
BITMAP
E0
ENDCHAR
STARTCHAR uni0336
ENCODING 822
SWIDTH 0 0
DWIDTH 0 0
BBX 6 1 0 5
BITMAP
FC
ENDCHAR
STARTCHAR uni0394
ENCODING 916
SWIDTH 687 0
DWIDTH 8 0
BBX 7 8 0 0
BITMAP
18
38
2C
2C
64
46
46
FE
ENDCHAR
STARTCHAR uni03A9
ENCODING 937
SWIDTH 709 0
DWIDTH 8 0
BBX 6 8 1 0
BITMAP
78
FC
8C
84
84
8C
C8
DC
ENDCHAR
STARTCHAR uni03BC
ENCODING 956
SWIDTH 593 0
DWIDTH 7 0
BBX 5 8 1 -2
BITMAP
98
98
98
98
98
F8
80
80
ENDCHAR
STARTCHAR pi
ENCODING 960
SWIDTH 588 0
DWIDTH 6 0
BBX 5 6 1 0
BITMAP
F8
F8
98
98
98
98
ENDCHAR
STARTCHAR uni1E0C
ENCODING 7692
SWIDTH 683 0
DWIDTH 8 0
BBX 6 10 1 -2
BITMAP
F0
FC
8C
8C
8C
8C
8C
F8
00
20
ENDCHAR
STARTCHAR uni1E0D
ENCODING 7693
SWIDTH 585 0
DWIDTH 6 0
BBX 5 10 1 -2
BITMAP
18
18
F8
F8
98
98
98
F8
00
20
ENDCHAR
STARTCHAR uni1E24
ENCODING 7716
SWIDTH 722 0
DWIDTH 8 0
BBX 6 10 1 -2
BITMAP
8C
8C
8C
8C
FC
8C
8C
8C
00
30
ENDCHAR
STARTCHAR uni1E25
ENCODING 7717
SWIDTH 593 0
DWIDTH 7 0
BBX 5 10 1 -2
BITMAP
80
80
B0
F8
98
98
98
98
00
20
ENDCHAR
STARTCHAR uni1E44
ENCODING 7748
SWIDTH 723 0
DWIDTH 8 0
BBX 6 10 1 0
BITMAP
30
00
C4
C4
E4
A4
B4
9C
8C
8C
ENDCHAR
STARTCHAR uni1E45
ENCODING 7749
SWIDTH 593 0
DWIDTH 7 0
BBX 5 8 1 0
BITMAP
20
00
B0
F8
98
98
98
98
ENDCHAR
STARTCHAR uni1E5A
ENCODING 7770
SWIDTH 676 0
DWIDTH 7 0
BBX 6 10 1 -2
BITMAP
F0
FC
8C
8C
F8
98
88
8C
00
20
ENDCHAR
STARTCHAR uni1E5B
ENCODING 7771
SWIDTH 395 0
DWIDTH 4 0
BBX 3 8 1 -2
BITMAP
A0
E0
80
80
80
80
00
80
ENDCHAR
STARTCHAR uni1E62
ENCODING 7778
SWIDTH 620 0
DWIDTH 7 0
BBX 5 10 1 -2
BITMAP
78
F8
80
E0
F8
08
08
F8
00
20
ENDCHAR
STARTCHAR uni1E63
ENCODING 7779
SWIDTH 499 0
DWIDTH 5 0
BBX 5 8 0 -2
BITMAP
78
48
C0
78
08
78
00
20
ENDCHAR
STARTCHAR uni1E6C
ENCODING 7788
SWIDTH 582 0
DWIDTH 6 0
BBX 6 10 0 -2
BITMAP
FC
FC
30
30
30
30
30
30
00
10
ENDCHAR
STARTCHAR uni1E6D
ENCODING 7789
SWIDTH 390 0
DWIDTH 4 0
BBX 4 9 0 -2
BITMAP
60
F0
F0
60
60
60
60
00
60
ENDCHAR
STARTCHAR Wgrave
ENCODING 7808
SWIDTH 989 0
DWIDTH 11 0
BBX 11 10 0 0
BITMAP
0800
0400
C460
4E40
4E40
6AC0
6AC0
7B80
3380
3180
ENDCHAR
STARTCHAR wgrave
ENCODING 7809
SWIDTH 832 0
DWIDTH 9 0
BBX 9 8 0 0
BITMAP
1800
0800
C980
4D80
5D00
5500
7700
3600
ENDCHAR
STARTCHAR Wacute
ENCODING 7810
SWIDTH 989 0
DWIDTH 11 0
BBX 11 10 0 0
BITMAP
0600
0400
C460
4E40
4E40
6AC0
6AC0
7B80
3380
3180
ENDCHAR
STARTCHAR wacute
ENCODING 7811
SWIDTH 832 0
DWIDTH 9 0
BBX 9 8 0 0
BITMAP
0C00
0800
C980
4D80
5D00
5500
7700
3600
ENDCHAR
STARTCHAR Wdieresis
ENCODING 7812
SWIDTH 989 0
DWIDTH 11 0
BBX 11 10 0 0
BITMAP
0A00
0000
C460
4E40
4E40
6AC0
6AC0
7B80
3380
3180
ENDCHAR
STARTCHAR wdieresis
ENCODING 7813
SWIDTH 832 0
DWIDTH 9 0
BBX 9 8 0 0
BITMAP
1400
0000
C980
4D80
5D00
5500
7700
3600
ENDCHAR
STARTCHAR uni1E92
ENCODING 7826
SWIDTH 611 0
DWIDTH 7 0
BBX 5 10 1 -2
BITMAP
F8
F8
18
30
60
C0
C0
F8
00
20
ENDCHAR
STARTCHAR uni1E93
ENCODING 7827
SWIDTH 521 0
DWIDTH 6 0
BBX 4 8 1 -2
BITMAP
F0
F0
20
40
C0
F0
00
60
ENDCHAR
STARTCHAR uni1E9E
ENCODING 7838
SWIDTH 725 0
DWIDTH 8 0
BBX 6 8 1 0
BITMAP
78
FC
C8
98
9C
84
84
BC
ENDCHAR
STARTCHAR uni1EA0
ENCODING 7840
SWIDTH 686 0
DWIDTH 8 0
BBX 7 10 0 -2
BITMAP
18
38
2C
2C
64
7E
46
C2
00
10
ENDCHAR
STARTCHAR uni1EA1
ENCODING 7841
SWIDTH 565 0
DWIDTH 6 0
BBX 5 8 0 -2
BITMAP
70
58
08
78
C8
78
00
10
ENDCHAR
STARTCHAR uni1EA2
ENCODING 7842
SWIDTH 686 0
DWIDTH 8 0
BBX 7 11 0 0
BITMAP
38
08
10
18
38
2C
2C
64
7E
46
C2
ENDCHAR
STARTCHAR uni1EA3
ENCODING 7843
SWIDTH 565 0
DWIDTH 6 0
BBX 5 9 0 0
BITMAP
30
08
30
70
58
08
78
C8
78
ENDCHAR
STARTCHAR uni1EA4
ENCODING 7844
SWIDTH 686 0
DWIDTH 8 0
BBX 7 12 0 0
BITMAP
08
10
18
2C
18
38
2C
2C
64
7E
46
C2
ENDCHAR
STARTCHAR uni1EA5
ENCODING 7845
SWIDTH 565 0
DWIDTH 6 0
BBX 5 10 0 0
BITMAP
18
20
30
48
70
58
08
78
C8
78
ENDCHAR
STARTCHAR uni1EA6
ENCODING 7846
SWIDTH 686 0
DWIDTH 8 0
BBX 7 12 0 0
BITMAP
30
10
18
2C
18
38
2C
2C
64
7E
46
C2
ENDCHAR
STARTCHAR uni1EA7
ENCODING 7847
SWIDTH 565 0
DWIDTH 6 0
BBX 5 10 0 0
BITMAP
60
10
30
48
70
58
08
78
C8
78
ENDCHAR
STARTCHAR uni1EA8
ENCODING 7848
SWIDTH 686 0
DWIDTH 8 0
BBX 7 13 0 0
BITMAP
30
08
10
18
2C
18
38
2C
2C
64
7E
46
C2
ENDCHAR
STARTCHAR uni1EA9
ENCODING 7849
SWIDTH 565 0
DWIDTH 6 0
BBX 5 11 0 0
BITMAP
30
08
30
30
48
70
58
08
78
C8
78
ENDCHAR
STARTCHAR uni1EAA
ENCODING 7850
SWIDTH 686 0
DWIDTH 8 0
BBX 7 12 0 0
BITMAP
34
28
18
2C
18
38
2C
2C
64
7E
46
C2
ENDCHAR
STARTCHAR uni1EAB
ENCODING 7851
SWIDTH 565 0
DWIDTH 6 0
BBX 5 10 0 0
BITMAP
78
48
30
48
70
58
08
78
C8
78
ENDCHAR
STARTCHAR uni1EAC
ENCODING 7852
SWIDTH 686 0
DWIDTH 8 0
BBX 7 12 0 -2
BITMAP
18
2C
18
38
2C
2C
64
7E
46
C2
00
10
ENDCHAR
STARTCHAR uni1EAD
ENCODING 7853
SWIDTH 565 0
DWIDTH 6 0
BBX 5 10 0 -2
BITMAP
30
48
70
58
08
78
C8
78
00
10
ENDCHAR
STARTCHAR uni1EAE
ENCODING 7854
SWIDTH 686 0
DWIDTH 8 0
BBX 7 12 0 0
BITMAP
08
10
28
18
18
38
2C
2C
64
7E
46
C2
ENDCHAR
STARTCHAR uni1EAF
ENCODING 7855
SWIDTH 565 0
DWIDTH 6 0
BBX 5 10 0 0
BITMAP
18
20
48
30
70
58
08
78
C8
78
ENDCHAR
STARTCHAR uni1EB0
ENCODING 7856
SWIDTH 686 0
DWIDTH 8 0
BBX 7 12 0 0
BITMAP
30
10
28
18
18
38
2C
2C
64
7E
46
C2
ENDCHAR
STARTCHAR uni1EB1
ENCODING 7857
SWIDTH 565 0
DWIDTH 6 0
BBX 5 10 0 0
BITMAP
60
10
48
30
70
58
08
78
C8
78
ENDCHAR
STARTCHAR uni1EB2
ENCODING 7858
SWIDTH 686 0
DWIDTH 8 0
BBX 7 12 0 0
BITMAP
38
10
28
18
18
38
2C
2C
64
7E
46
C2
ENDCHAR
STARTCHAR uni1EB3
ENCODING 7859
SWIDTH 565 0
DWIDTH 6 0
BBX 5 10 0 0
BITMAP
38
10
48
30
70
58
08
78
C8
78
ENDCHAR
STARTCHAR uni1EB4
ENCODING 7860
SWIDTH 686 0
DWIDTH 8 0
BBX 7 12 0 0
BITMAP
34
28
28
18
18
38
2C
2C
64
7E
46
C2
ENDCHAR
STARTCHAR uni1EB5
ENCODING 7861
SWIDTH 565 0
DWIDTH 6 0
BBX 5 10 0 0
BITMAP
68
58
48
30
70
58
08
78
C8
78
ENDCHAR
STARTCHAR uni1EB6
ENCODING 7862
SWIDTH 686 0
DWIDTH 8 0
BBX 7 12 0 -2
BITMAP
28
18
18
38
2C
2C
64
7E
46
C2
00
10
ENDCHAR
STARTCHAR uni1EB7
ENCODING 7863
SWIDTH 565 0
DWIDTH 6 0
BBX 5 10 0 -2
BITMAP
48
30
70
58
08
78
C8
78
00
10
ENDCHAR
STARTCHAR uni1EB8
ENCODING 7864
SWIDTH 607 0
DWIDTH 7 0
BBX 5 10 1 -2
BITMAP
F8
F8
80
80
F8
80
80
F8
00
20
ENDCHAR
STARTCHAR uni1EB9
ENCODING 7865
SWIDTH 557 0
DWIDTH 6 0
BBX 5 8 1 -2
BITMAP
70
D0
98
F8
80
F0
00
60
ENDCHAR
STARTCHAR uni1EBA
ENCODING 7866
SWIDTH 607 0
DWIDTH 7 0
BBX 5 11 1 0
BITMAP
60
10
20
F8
F8
80
80
F8
80
80
F8
ENDCHAR
STARTCHAR uni1EBB
ENCODING 7867
SWIDTH 557 0
DWIDTH 6 0
BBX 5 9 1 0
BITMAP
60
10
60
70
D0
98
F8
80
F0
ENDCHAR
STARTCHAR uni1EBC
ENCODING 7868
SWIDTH 607 0
DWIDTH 7 0
BBX 5 10 1 0
BITMAP
68
90
F8
F8
80
80
F8
80
80
F8
ENDCHAR
STARTCHAR uni1EBD
ENCODING 7869
SWIDTH 557 0
DWIDTH 6 0
BBX 5 8 1 0
BITMAP
F0
80
70
D0
98
F8
80
F0
ENDCHAR
STARTCHAR uni1EBE
ENCODING 7870
SWIDTH 607 0
DWIDTH 7 0
BBX 5 12 1 0
BITMAP
30
20
30
50
F8
F8
80
80
F8
80
80
F8
ENDCHAR
STARTCHAR uni1EBF
ENCODING 7871
SWIDTH 557 0
DWIDTH 6 0
BBX 5 10 1 0
BITMAP
30
40
60
90
70
D0
98
F8
80
F0
ENDCHAR
STARTCHAR uni1EC0
ENCODING 7872
SWIDTH 607 0
DWIDTH 7 0
BBX 5 12 1 0
BITMAP
40
20
30
50
F8
F8
80
80
F8
80
80
F8
ENDCHAR
STARTCHAR uni1EC1
ENCODING 7873
SWIDTH 557 0
DWIDTH 6 0
BBX 5 10 1 0
BITMAP
C0
20
60
90
70
D0
98
F8
80
F0
ENDCHAR
STARTCHAR uni1EC2
ENCODING 7874
SWIDTH 607 0
DWIDTH 7 0
BBX 5 13 1 0
BITMAP
60
10
20
30
50
F8
F8
80
80
F8
80
80
F8
ENDCHAR
STARTCHAR uni1EC3
ENCODING 7875
SWIDTH 557 0
DWIDTH 6 0
BBX 5 11 1 0
BITMAP
60
10
60
60
90
70
D0
98
F8
80
F0
ENDCHAR
STARTCHAR uni1EC4
ENCODING 7876
SWIDTH 607 0
DWIDTH 7 0
BBX 5 12 1 0
BITMAP
68
90
30
50
F8
F8
80
80
F8
80
80
F8
ENDCHAR
STARTCHAR uni1EC5
ENCODING 7877
SWIDTH 557 0
DWIDTH 6 0
BBX 5 10 1 0
BITMAP
F0
90
60
90
70
D0
98
F8
80
F0
ENDCHAR
STARTCHAR uni1EC6
ENCODING 7878
SWIDTH 607 0
DWIDTH 7 0
BBX 5 12 1 -2
BITMAP
30
50
F8
F8
80
80
F8
80
80
F8
00
20
ENDCHAR
STARTCHAR uni1EC7
ENCODING 7879
SWIDTH 557 0
DWIDTH 6 0
BBX 5 10 1 -2
BITMAP
60
90
70
D0
98
F8
80
F0
00
60
ENDCHAR
STARTCHAR uni1EC8
ENCODING 7880
SWIDTH 306 0
DWIDTH 3 0
BBX 3 11 0 0
BITMAP
E0
20
40
40
40
40
40
40
40
40
40
ENDCHAR
STARTCHAR uni1EC9
ENCODING 7881
SWIDTH 275 0
DWIDTH 3 0
BBX 3 9 0 0
BITMAP
C0
20
40
40
40
40
40
40
40
ENDCHAR
STARTCHAR uni1ECA
ENCODING 7882
SWIDTH 306 0
DWIDTH 3 0
BBX 1 10 1 -2
BITMAP
80
80
80
80
80
80
80
80
00
80
ENDCHAR
STARTCHAR uni1ECB
ENCODING 7883
SWIDTH 275 0
DWIDTH 3 0
BBX 1 10 1 -2
BITMAP
80
00
80
80
80
80
80
80
00
80
ENDCHAR
STARTCHAR uni1ECC
ENCODING 7884
SWIDTH 707 0
DWIDTH 8 0
BBX 6 10 1 -2
BITMAP
78
FC
8C
84
84
84
CC
F8
00
20
ENDCHAR
STARTCHAR uni1ECD
ENCODING 7885
SWIDTH 574 0
DWIDTH 6 0
BBX 5 8 1 -2
BITMAP
70
F8
98
98
98
F0
00
20
ENDCHAR
STARTCHAR uni1ECE
ENCODING 7886
SWIDTH 707 0
DWIDTH 8 0
BBX 6 11 1 0
BITMAP
30
10
20
78
FC
8C
84
84
84
CC
F8
ENDCHAR
STARTCHAR uni1ECF
ENCODING 7887
SWIDTH 574 0
DWIDTH 6 0
BBX 5 9 1 0
BITMAP
60
10
60
70
F8
98
98
98
F0
ENDCHAR
STARTCHAR uni1ED0
ENCODING 7888
SWIDTH 707 0
DWIDTH 8 0
BBX 6 12 1 0
BITMAP
18
20
30
48
78
FC
8C
84
84
84
CC
F8
ENDCHAR
STARTCHAR uni1ED1
ENCODING 7889
SWIDTH 574 0
DWIDTH 6 0
BBX 5 10 1 0
BITMAP
30
40
60
90
70
F8
98
98
98
F0
ENDCHAR
STARTCHAR uni1ED2
ENCODING 7890
SWIDTH 707 0
DWIDTH 8 0
BBX 6 12 1 0
BITMAP
60
20
30
48
78
FC
8C
84
84
84
CC
F8
ENDCHAR
STARTCHAR uni1ED3
ENCODING 7891
SWIDTH 574 0
DWIDTH 6 0
BBX 5 10 1 0
BITMAP
C0
20
60
90
70
F8
98
98
98
F0
ENDCHAR
STARTCHAR uni1ED4
ENCODING 7892
SWIDTH 707 0
DWIDTH 8 0
BBX 6 13 1 0
BITMAP
20
10
20
30
48
78
FC
8C
84
84
84
CC
F8
ENDCHAR
STARTCHAR uni1ED5
ENCODING 7893
SWIDTH 574 0
DWIDTH 6 0
BBX 5 11 1 0
BITMAP
60
10
20
60
90
70
F8
98
98
98
F0
ENDCHAR
STARTCHAR uni1ED6
ENCODING 7894
SWIDTH 707 0
DWIDTH 8 0
BBX 6 12 1 0
BITMAP
68
50
30
48
78
FC
8C
84
84
84
CC
F8
ENDCHAR
STARTCHAR uni1ED7
ENCODING 7895
SWIDTH 574 0
DWIDTH 6 0
BBX 5 10 1 0
BITMAP
F0
90
60
90
70
F8
98
98
98
F0
ENDCHAR
STARTCHAR uni1ED8
ENCODING 7896
SWIDTH 707 0
DWIDTH 8 0
BBX 6 12 1 -2
BITMAP
30
48
78
FC
8C
84
84
84
CC
F8
00
20
ENDCHAR
STARTCHAR uni1ED9
ENCODING 7897
SWIDTH 574 0
DWIDTH 6 0
BBX 5 10 1 -2
BITMAP
60
90
70
F8
98
98
98
F0
00
20
ENDCHAR
STARTCHAR uni1EDA
ENCODING 7898
SWIDTH 707 0
DWIDTH 8 0
BBX 6 10 1 0
BITMAP
18
24
7C
FC
8C
84
84
84
CC
F8
ENDCHAR
STARTCHAR uni1EDB
ENCODING 7899
SWIDTH 574 0
DWIDTH 6 0
BBX 5 8 1 0
BITMAP
30
48
78
F8
98
98
98
F0
ENDCHAR
STARTCHAR uni1EDC
ENCODING 7900
SWIDTH 707 0
DWIDTH 8 0
BBX 6 10 1 0
BITMAP
60
34
7C
FC
8C
84
84
84
CC
F8
ENDCHAR
STARTCHAR uni1EDD
ENCODING 7901
SWIDTH 574 0
DWIDTH 6 0
BBX 5 8 1 0
BITMAP
C0
28
78
F8
98
98
98
F0
ENDCHAR
STARTCHAR uni1EDE
ENCODING 7902
SWIDTH 707 0
DWIDTH 8 0
BBX 6 11 1 0
BITMAP
30
10
24
7C
FC
8C
84
84
84
CC
F8
ENDCHAR
STARTCHAR uni1EDF
ENCODING 7903
SWIDTH 574 0
DWIDTH 6 0
BBX 5 9 1 0
BITMAP
60
10
68
78
F8
98
98
98
F0
ENDCHAR
STARTCHAR uni1EE0
ENCODING 7904
SWIDTH 707 0
DWIDTH 8 0
BBX 6 10 1 0
BITMAP
78
44
7C
FC
8C
84
84
84
CC
F8
ENDCHAR
STARTCHAR uni1EE1
ENCODING 7905
SWIDTH 580 0
DWIDTH 6 0
BBX 5 8 1 0
BITMAP
70
88
78
F8
98
98
98
F0
ENDCHAR
STARTCHAR uni1EE2
ENCODING 7906
SWIDTH 707 0
DWIDTH 8 0
BBX 6 11 1 -2
BITMAP
04
7C
FC
8C
84
84
84
CC
F8
00
20
ENDCHAR
STARTCHAR uni1EE3
ENCODING 7907
SWIDTH 574 0
DWIDTH 6 0
BBX 5 9 1 -2
BITMAP
08
78
F8
98
98
98
F0
00
20
ENDCHAR
STARTCHAR uni1EE4
ENCODING 7908
SWIDTH 698 0
DWIDTH 8 0
BBX 6 10 1 -2
BITMAP
8C
8C
8C
8C
8C
8C
CC
F8
00
20
ENDCHAR
STARTCHAR uni1EE5
ENCODING 7909
SWIDTH 593 0
DWIDTH 7 0
BBX 5 8 1 -2
BITMAP
98
98
98
98
98
F8
00
60
ENDCHAR
STARTCHAR uni1EE6
ENCODING 7910
SWIDTH 698 0
DWIDTH 8 0
BBX 6 11 1 0
BITMAP
70
10
20
8C
8C
8C
8C
8C
8C
CC
F8
ENDCHAR
STARTCHAR uni1EE7
ENCODING 7911
SWIDTH 593 0
DWIDTH 7 0
BBX 5 9 1 0
BITMAP
60
10
20
98
98
98
98
98
F8
ENDCHAR
STARTCHAR uni1EE8
ENCODING 7912
SWIDTH 698 0
DWIDTH 8 0
BBX 7 10 1 0
BITMAP
18
22
8E
8C
8C
8C
8C
8C
CC
F8
ENDCHAR
STARTCHAR uni1EE9
ENCODING 7913
SWIDTH 593 0
DWIDTH 7 0
BBX 6 8 1 0
BITMAP
30
44
9C
98
98
98
98
F8
ENDCHAR
STARTCHAR uni1EEA
ENCODING 7914
SWIDTH 698 0
DWIDTH 8 0
BBX 7 10 1 0
BITMAP
60
22
8E
8C
8C
8C
8C
8C
CC
F8
ENDCHAR
STARTCHAR uni1EEB
ENCODING 7915
SWIDTH 593 0
DWIDTH 7 0
BBX 6 8 1 0
BITMAP
40
24
9C
98
98
98
98
F8
ENDCHAR
STARTCHAR uni1EEC
ENCODING 7916
SWIDTH 698 0
DWIDTH 8 0
BBX 7 11 1 0
BITMAP
70
10
22
8E
8C
8C
8C
8C
8C
CC
F8
ENDCHAR
STARTCHAR uni1EED
ENCODING 7917
SWIDTH 593 0
DWIDTH 7 0
BBX 6 9 1 0
BITMAP
60
10
24
9C
98
98
98
98
F8
ENDCHAR
STARTCHAR uni1EEE
ENCODING 7918
SWIDTH 698 0
DWIDTH 8 0
BBX 7 10 1 0
BITMAP
78
42
8E
8C
8C
8C
8C
8C
CC
F8
ENDCHAR
STARTCHAR uni1EEF
ENCODING 7919
SWIDTH 604 0
DWIDTH 7 0
BBX 6 8 1 0
BITMAP
68
94
9C
98
98
98
98
F8
ENDCHAR
STARTCHAR uni1EF0
ENCODING 7920
SWIDTH 698 0
DWIDTH 8 0
BBX 7 11 1 -2
BITMAP
02
8E
8C
8C
8C
8C
8C
CC
F8
00
20
ENDCHAR
STARTCHAR uni1EF1
ENCODING 7921
SWIDTH 593 0
DWIDTH 7 0
BBX 6 9 1 -2
BITMAP
04
9C
98
98
98
98
F8
00
20
ENDCHAR
STARTCHAR Ygrave
ENCODING 7922
SWIDTH 624 0
DWIDTH 7 0
BBX 7 10 0 0
BITMAP
20
10
C6
44
6C
28
38
10
10
10
ENDCHAR
STARTCHAR ygrave
ENCODING 7923
SWIDTH 593 0
DWIDTH 7 0
BBX 5 10 1 -2
BITMAP
40
20
98
98
98
98
98
F8
18
F0
ENDCHAR
STARTCHAR uni1EF4
ENCODING 7924
SWIDTH 624 0
DWIDTH 7 0
BBX 7 10 0 -2
BITMAP
C6
44
6C
28
38
10
10
10
00
10
ENDCHAR
STARTCHAR uni1EF5
ENCODING 7925
SWIDTH 593 0
DWIDTH 7 0
BBX 5 10 1 -4
BITMAP
98
98
98
98
98
F8
18
F0
00
60
ENDCHAR
STARTCHAR uni1EF6
ENCODING 7926
SWIDTH 624 0
DWIDTH 7 0
BBX 7 11 0 0
BITMAP
30
08
10
C6
44
6C
28
38
10
10
10
ENDCHAR
STARTCHAR uni1EF7
ENCODING 7927
SWIDTH 593 0
DWIDTH 7 0
BBX 5 11 1 -2
BITMAP
60
10
20
98
98
98
98
98
F8
18
F0
ENDCHAR
STARTCHAR uni1EF8
ENCODING 7928
SWIDTH 624 0
DWIDTH 7 0
BBX 7 10 0 0
BITMAP
38
40
C6
44
6C
28
38
10
10
10
ENDCHAR
STARTCHAR uni1EF9
ENCODING 7929
SWIDTH 593 0
DWIDTH 7 0
BBX 5 10 1 -2
BITMAP
F0
80
98
98
98
98
98
F8
18
F0
ENDCHAR
STARTCHAR uni2002
ENCODING 8194
SWIDTH 500 0
DWIDTH 6 0
BBX 1 1 0 0
BITMAP
00
ENDCHAR
STARTCHAR uni2003
ENCODING 8195
SWIDTH 1000 0
DWIDTH 11 0
BBX 1 1 0 0
BITMAP
00
ENDCHAR
STARTCHAR uni2004
ENCODING 8196
SWIDTH 333 0
DWIDTH 4 0
BBX 1 1 0 0
BITMAP
00
ENDCHAR
STARTCHAR uni2005
ENCODING 8197
SWIDTH 250 0
DWIDTH 3 0
BBX 1 1 0 0
BITMAP
00
ENDCHAR
STARTCHAR uni2010
ENCODING 8208
SWIDTH 369 0
DWIDTH 4 0
BBX 2 1 1 3
BITMAP
C0
ENDCHAR
STARTCHAR endash
ENCODING 8211
SWIDTH 475 0
DWIDTH 5 0
BBX 4 1 1 3
BITMAP
F0
ENDCHAR
STARTCHAR emdash
ENCODING 8212
SWIDTH 876 0
DWIDTH 10 0
BBX 8 1 1 3
BITMAP
FF
ENDCHAR
STARTCHAR underscoredbl
ENCODING 8215
SWIDTH 340 0
DWIDTH 4 0
BBX 4 2 0 -3
BITMAP
F0
F0
ENDCHAR
STARTCHAR quoteleft
ENCODING 8216
SWIDTH 267 0
DWIDTH 3 0
BBX 1 3 1 5
BITMAP
80
80
80
ENDCHAR
STARTCHAR quoteright
ENCODING 8217
SWIDTH 267 0
DWIDTH 3 0
BBX 1 3 1 5
BITMAP
80
80
80
ENDCHAR
STARTCHAR quotesinglbase
ENCODING 8218
SWIDTH 267 0
DWIDTH 3 0
BBX 1 2 1 -1
BITMAP
80
80
ENDCHAR
STARTCHAR quotedblleft
ENCODING 8220
SWIDTH 468 0
DWIDTH 5 0
BBX 4 3 1 5
BITMAP
90
A0
A0
ENDCHAR
STARTCHAR quotedblright
ENCODING 8221
SWIDTH 468 0
DWIDTH 5 0
BBX 3 3 1 5
BITMAP
A0
A0
A0
ENDCHAR
STARTCHAR quotedblbase
ENCODING 8222
SWIDTH 468 0
DWIDTH 5 0
BBX 3 2 1 -1
BITMAP
A0
A0
ENDCHAR
STARTCHAR dagger
ENCODING 8224
SWIDTH 492 0
DWIDTH 5 0
BBX 4 8 1 0
BITMAP
40
40
F0
40
40
40
40
40
ENDCHAR
STARTCHAR daggerdbl
ENCODING 8225
SWIDTH 492 0
DWIDTH 5 0
BBX 4 8 1 0
BITMAP
40
40
F0
40
40
F0
40
40
ENDCHAR
STARTCHAR bullet
ENCODING 8226
SWIDTH 385 0
DWIDTH 4 0
BBX 2 3 1 2
BITMAP
C0
C0
40
ENDCHAR
STARTCHAR ellipsis
ENCODING 8230
SWIDTH 821 0
DWIDTH 9 0
BBX 7 1 1 0
BITMAP
92
ENDCHAR
STARTCHAR perthousand
ENCODING 8240
SWIDTH 1003 0
DWIDTH 11 0
BBX 9 8 1 0
BITMAP
C400
C800
C800
D000
2D80
3580
5580
9D80
ENDCHAR
STARTCHAR minute
ENCODING 8242
SWIDTH 252 0
DWIDTH 3 0
BBX 1 4 1 4
BITMAP
80
80
80
80
ENDCHAR
STARTCHAR second
ENCODING 8243
SWIDTH 437 0
DWIDTH 5 0
BBX 3 4 1 4
BITMAP
A0
A0
A0
A0
ENDCHAR
STARTCHAR guilsinglleft
ENCODING 8249
SWIDTH 309 0
DWIDTH 3 0
BBX 3 5 0 1
BITMAP
20
40
C0
40
20
ENDCHAR
STARTCHAR guilsinglright
ENCODING 8250
SWIDTH 309 0
DWIDTH 3 0
BBX 2 5 1 1
BITMAP
80
80
40
C0
80
ENDCHAR
STARTCHAR exclamdbl
ENCODING 8252
SWIDTH 541 0
DWIDTH 6 0
BBX 4 8 1 0
BITMAP
F0
D0
D0
90
90
90
00
D0
ENDCHAR
STARTCHAR fraction
ENCODING 8260
SWIDTH 156 0
DWIDTH 2 0
BBX 6 8 -2 0
BITMAP
04
08
10
10
20
20
40
80
ENDCHAR
STARTCHAR uni2052
ENCODING 8274
SWIDTH 378 0
DWIDTH 4 0
BBX 4 8 0 0
BITMAP
D0
D0
20
20
40
40
40
B0
ENDCHAR
STARTCHAR uni2070
ENCODING 8304
SWIDTH 383 0
DWIDTH 4 0
BBX 4 4 0 5
BITMAP
70
90
90
70
ENDCHAR
STARTCHAR uni2074
ENCODING 8308
SWIDTH 369 0
DWIDTH 4 0
BBX 4 4 0 5
BITMAP
60
60
F0
20
ENDCHAR
STARTCHAR uni2075
ENCODING 8309
SWIDTH 361 0
DWIDTH 4 0
BBX 4 4 0 5
BITMAP
60
60
10
E0
ENDCHAR
STARTCHAR uni2076
ENCODING 8310
SWIDTH 378 0
DWIDTH 4 0
BBX 4 4 0 5
BITMAP
70
E0
90
70
ENDCHAR
STARTCHAR uni2077
ENCODING 8311
SWIDTH 328 0
DWIDTH 4 0
BBX 3 4 0 5
BITMAP
E0
20
40
40
ENDCHAR
STARTCHAR uni2078
ENCODING 8312
SWIDTH 392 0
DWIDTH 4 0
BBX 4 4 0 5
BITMAP
F0
70
90
70
ENDCHAR
STARTCHAR uni2079
ENCODING 8313
SWIDTH 378 0
DWIDTH 4 0
BBX 4 4 0 5
BITMAP
F0
B0
50
60
ENDCHAR
STARTCHAR uni2080
ENCODING 8320
SWIDTH 383 0
DWIDTH 4 0
BBX 4 4 0 -1
BITMAP
70
90
90
70
ENDCHAR
STARTCHAR uni2081
ENCODING 8321
SWIDTH 229 0
DWIDTH 3 0
BBX 2 4 0 -1
BITMAP
C0
40
40
40
ENDCHAR
STARTCHAR uni2082
ENCODING 8322
SWIDTH 353 0
DWIDTH 4 0
BBX 3 4 0 -1
BITMAP
E0
20
C0
E0
ENDCHAR
STARTCHAR uni2083
ENCODING 8323
SWIDTH 350 0
DWIDTH 4 0
BBX 3 4 0 -1
BITMAP
E0
60
20
E0
ENDCHAR
STARTCHAR uni2084
ENCODING 8324
SWIDTH 369 0
DWIDTH 4 0
BBX 4 4 0 -1
BITMAP
60
60
F0
20
ENDCHAR
STARTCHAR uni2085
ENCODING 8325
SWIDTH 361 0
DWIDTH 4 0
BBX 4 4 0 -1
BITMAP
60
60
10
E0
ENDCHAR
STARTCHAR uni2086
ENCODING 8326
SWIDTH 378 0
DWIDTH 4 0
BBX 4 4 0 -1
BITMAP
70
E0
90
70
ENDCHAR
STARTCHAR uni2087
ENCODING 8327
SWIDTH 328 0
DWIDTH 4 0
BBX 3 4 0 -1
BITMAP
E0
20
40
40
ENDCHAR
STARTCHAR uni2088
ENCODING 8328
SWIDTH 392 0
DWIDTH 4 0
BBX 4 4 0 -1
BITMAP
F0
70
90
70
ENDCHAR
STARTCHAR uni2089
ENCODING 8329
SWIDTH 378 0
DWIDTH 4 0
BBX 4 4 0 -1
BITMAP
F0
B0
50
60
ENDCHAR
STARTCHAR colonmonetary
ENCODING 8353
SWIDTH 571 0
DWIDTH 6 0
BBX 6 9 1 -1
BITMAP
7C
F8
98
A8
A8
B0
F0
F8
50
ENDCHAR
STARTCHAR franc
ENCODING 8355
SWIDTH 569 0
DWIDTH 6 0
BBX 6 8 0 0
BITMAP
7C
7C
40
40
78
40
F0
40
ENDCHAR
STARTCHAR lira
ENCODING 8356
SWIDTH 599 0
DWIDTH 7 0
BBX 5 8 1 0
BITMAP
38
78
C0
F0
C0
F0
C0
F8
ENDCHAR
STARTCHAR uni20A6
ENCODING 8358
SWIDTH 723 0
DWIDTH 8 0
BBX 8 8 0 0
BITMAP
62
62
72
52
FF
4E
46
46
ENDCHAR
STARTCHAR peseta
ENCODING 8359
SWIDTH 647 0
DWIDTH 7 0
BBX 8 8 0 0
BITMAP
78
7C
FF
46
7C
40
40
40
ENDCHAR
STARTCHAR uni20A9
ENCODING 8361
SWIDTH 989 0
DWIDTH 11 0
BBX 11 8 0 0
BITMAP
C460
4E40
4E40
6AC0
FFE0
7B80
3380
3180
ENDCHAR
STARTCHAR dong
ENCODING 8363
SWIDTH 566 0
DWIDTH 6 0
BBX 5 8 1 0
BITMAP
38
10
D0
B0
90
90
F0
F0
ENDCHAR
STARTCHAR Euro
ENCODING 8364
SWIDTH 614 0
DWIDTH 7 0
BBX 6 8 0 0
BITMAP
1C
3C
60
FC
60
FC
60
3C
ENDCHAR
STARTCHAR uni20AD
ENCODING 8365
SWIDTH 678 0
DWIDTH 7 0
BBX 7 8 0 0
BITMAP
42
44
4C
58
FE
4C
4C
46
ENDCHAR
STARTCHAR uni20B1
ENCODING 8369
SWIDTH 647 0
DWIDTH 7 0
BBX 8 8 0 0
BITMAP
78
7C
FF
FF
7C
40
40
40
ENDCHAR
STARTCHAR uni20B2
ENCODING 8370
SWIDTH 616 0
DWIDTH 7 0
BBX 5 8 1 0
BITMAP
20
78
E8
A0
B8
B8
F8
20
ENDCHAR
STARTCHAR uni20B5
ENCODING 8373
SWIDTH 571 0
DWIDTH 6 0
BBX 5 9 1 -1
BITMAP
78
F8
A0
A0
A0
A0
E0
F8
20
ENDCHAR
STARTCHAR uni20B9
ENCODING 8377
SWIDTH 606 0
DWIDTH 7 0
BBX 6 8 1 0
BITMAP
FC
F8
FC
18
F8
C0
60
38
ENDCHAR
STARTCHAR uni20BA
ENCODING 8378
SWIDTH 583 0
DWIDTH 6 0
BBX 6 8 0 0
BITMAP
40
40
58
E0
70
C4
4C
7C
ENDCHAR
STARTCHAR uni20BC
ENCODING 8380
SWIDTH 698 0
DWIDTH 8 0
BBX 6 8 1 0
BITMAP
70
FC
AC
AC
AC
AC
AC
AC
ENDCHAR
STARTCHAR uni20BD
ENCODING 8381
SWIDTH 647 0
DWIDTH 7 0
BBX 7 8 0 0
BITMAP
78
7C
46
46
FC
40
F0
40
ENDCHAR
STARTCHAR uni2113
ENCODING 8467
SWIDTH 499 0
DWIDTH 5 0
BBX 5 8 0 0
BITMAP
30
78
58
58
70
E0
68
78
ENDCHAR
STARTCHAR uni2116
ENCODING 8470
SWIDTH 1058 0
DWIDTH 12 0
BBX 10 8 1 0
BITMAP
8580
8540
C540
A580
9400
95C0
8C00
8400
ENDCHAR
STARTCHAR trademark
ENCODING 8482
SWIDTH 782 0
DWIDTH 9 0
BBX 7 4 1 4
BITMAP
D2
56
5E
5A
ENDCHAR
STARTCHAR uni2126
ENCODING 8486
SWIDTH 709 0
DWIDTH 8 0
BBX 6 8 1 0
BITMAP
78
FC
8C
84
84
8C
C8
DC
ENDCHAR
STARTCHAR estimated
ENCODING 8494
SWIDTH 707 0
DWIDTH 8 0
BBX 6 8 1 0
BITMAP
78
8C
84
84
F8
80
84
FC
ENDCHAR
STARTCHAR uni2153
ENCODING 8531
SWIDTH 735 0
DWIDTH 8 0
BBX 8 8 0 0
BITMAP
44
C4
48
50
57
26
41
C7
ENDCHAR
STARTCHAR uni2154
ENCODING 8532
SWIDTH 859 0
DWIDTH 9 0
BBX 9 8 0 0
BITMAP
E100
2200
6400
8400
EB80
1180
1080
2380
ENDCHAR
STARTCHAR oneeighth
ENCODING 8539
SWIDTH 777 0
DWIDTH 9 0
BBX 8 8 0 0
BITMAP
44
C4
48
50
57
27
45
C7
ENDCHAR
STARTCHAR threeeighths
ENCODING 8540
SWIDTH 898 0
DWIDTH 10 0
BBX 9 8 0 0
BITMAP
E100
2200
6400
2400
EB80
1380
1280
2380
ENDCHAR
STARTCHAR fiveeighths
ENCODING 8541
SWIDTH 909 0
DWIDTH 10 0
BBX 10 8 0 0
BITMAP
6100
8200
6400
1400
EBC0
1380
1240
2380
ENDCHAR
STARTCHAR seveneighths
ENCODING 8542
SWIDTH 832 0
DWIDTH 9 0
BBX 9 8 0 0
BITMAP
E200
2400
2400
4800
5780
1780
2480
4780
ENDCHAR
STARTCHAR arrowleft
ENCODING 8592
SWIDTH 883 0
DWIDTH 10 0
BBX 8 3 1 2
BITMAP
20
FF
60
ENDCHAR
STARTCHAR arrowup
ENCODING 8593
SWIDTH 395 0
DWIDTH 4 0
BBX 3 9 1 -1
BITMAP
40
40
C0
E0
40
40
40
40
40
ENDCHAR
STARTCHAR arrowright
ENCODING 8594
SWIDTH 883 0
DWIDTH 10 0
BBX 8 3 1 2
BITMAP
04
FF
04
ENDCHAR
STARTCHAR arrowdown
ENCODING 8595
SWIDTH 395 0
DWIDTH 4 0
BBX 3 9 1 -1
BITMAP
40
40
40
40
40
40
E0
C0
40
ENDCHAR
STARTCHAR arrowboth
ENCODING 8596
SWIDTH 883 0
DWIDTH 10 0
BBX 8 3 1 2
BITMAP
24
FF
64
ENDCHAR
STARTCHAR arrowupdn
ENCODING 8597
SWIDTH 395 0
DWIDTH 4 0
BBX 3 9 1 -1
BITMAP
40
40
C0
60
40
40
E0
C0
40
ENDCHAR
STARTCHAR arrowupdnbse
ENCODING 8616
SWIDTH 395 0
DWIDTH 4 0
BBX 3 10 1 -2
BITMAP
40
40
C0
60
40
40
E0
C0
40
E0
ENDCHAR
STARTCHAR partialdiff
ENCODING 8706
SWIDTH 574 0
DWIDTH 6 0
BBX 5 8 1 0
BITMAP
60
30
F0
D8
98
98
98
F0
ENDCHAR
STARTCHAR uni2206
ENCODING 8710
SWIDTH 687 0
DWIDTH 8 0
BBX 7 8 0 0
BITMAP
18
38
2C
2C
64
46
46
FE
ENDCHAR
STARTCHAR product
ENCODING 8719
SWIDTH 724 0
DWIDTH 8 0
BBX 6 10 1 -2
BITMAP
FC
FC
8C
8C
8C
8C
8C
8C
8C
8C
ENDCHAR
STARTCHAR summation
ENCODING 8721
SWIDTH 706 0
DWIDTH 8 0
BBX 6 10 1 -2
BITMAP
FC
FC
40
60
30
18
30
60
C0
FC
ENDCHAR
STARTCHAR minus
ENCODING 8722
SWIDTH 540 0
DWIDTH 6 0
BBX 4 1 1 2
BITMAP
F0
ENDCHAR
STARTCHAR uni2215
ENCODING 8725
SWIDTH 378 0
DWIDTH 4 0
BBX 4 8 0 0
BITMAP
10
10
20
20
40
40
40
80
ENDCHAR
STARTCHAR uni2219
ENCODING 8729
SWIDTH 385 0
DWIDTH 4 0
BBX 2 3 1 2
BITMAP
C0
C0
C0
ENDCHAR
STARTCHAR radical
ENCODING 8730
SWIDTH 679 0
DWIDTH 7 0
BBX 7 9 0 -1
BITMAP
02
06
04
04
44
EC
28
38
18
ENDCHAR
STARTCHAR infinity
ENCODING 8734
SWIDTH 1037 0
DWIDTH 11 0
BBX 10 5 1 0
BITMAP
F780
8C40
8840
F7C0
2100
ENDCHAR
STARTCHAR integral
ENCODING 8747
SWIDTH 418 0
DWIDTH 5 0
BBX 4 10 0 -2
BITMAP
30
60
60
60
60
20
20
20
20
E0
ENDCHAR
STARTCHAR approxequal
ENCODING 8776
SWIDTH 497 0
DWIDTH 5 0
BBX 4 4 1 1
BITMAP
90
F0
10
F0
ENDCHAR
STARTCHAR notequal
ENCODING 8800
SWIDTH 540 0
DWIDTH 6 0
BBX 4 6 1 0
BITMAP
10
20
F0
40
F0
80
ENDCHAR
STARTCHAR lessequal
ENCODING 8804
SWIDTH 541 0
DWIDTH 6 0
BBX 4 6 1 0
BITMAP
30
C0
E0
10
00
F0
ENDCHAR
STARTCHAR greaterequal
ENCODING 8805
SWIDTH 541 0
DWIDTH 6 0
BBX 4 6 1 0
BITMAP
C0
30
70
80
00
F0
ENDCHAR
STARTCHAR house
ENCODING 8962
SWIDTH 748 0
DWIDTH 8 0
BBX 7 8 1 0
BITMAP
30
78
CC
86
82
82
82
FE
ENDCHAR
STARTCHAR lozenge
ENCODING 9674
SWIDTH 540 0
DWIDTH 6 0
BBX 4 8 1 0
BITMAP
60
60
B0
90
90
90
60
60
ENDCHAR
STARTCHAR uni27E8
ENCODING 10216
SWIDTH 306 0
DWIDTH 3 0
BBX 3 9 0 -1
BITMAP
20
60
40
40
C0
40
40
20
20
ENDCHAR
STARTCHAR uni27E9
ENCODING 10217
SWIDTH 306 0
DWIDTH 3 0
BBX 3 9 0 -1
BITMAP
C0
40
40
20
20
60
40
40
C0
ENDCHAR
STARTCHAR uniA78B
ENCODING 42891
SWIDTH 271 0
DWIDTH 3 0
BBX 1 5 1 3
BITMAP
80
80
80
80
80
ENDCHAR
STARTCHAR uniA78C
ENCODING 42892
SWIDTH 254 0
DWIDTH 3 0
BBX 1 5 1 3
BITMAP
80
80
80
80
80
ENDCHAR
STARTCHAR uniE0FF
ENCODING 57599
SWIDTH 841 0
DWIDTH 9 0
BBX 7 8 1 0
BITMAP
FE
FE
C6
92
92
C2
EE
FE
ENDCHAR
STARTCHAR uniEFFD
ENCODING 61437
SWIDTH 886 0
DWIDTH 10 0
BBX 8 13 1 -1
BITMAP
10
34
18
18
FF
FF
AB
AB
AB
AB
AB
EF
10
ENDCHAR
STARTCHAR uniF000
ENCODING 61440
SWIDTH 600 0
DWIDTH 7 0
BBX 1 1 0 0
BITMAP
00
ENDCHAR
STARTCHAR uniF8FF
ENCODING 63743
SWIDTH 841 0
DWIDTH 9 0
BBX 7 8 1 0
BITMAP
FE
FE
C6
92
92
C2
EE
FE
ENDCHAR
STARTCHAR fi
ENCODING 64257
SWIDTH 679 0
DWIDTH 7 0
BBX 7 8 0 0
BITMAP
36
60
F6
F6
66
66
66
66
ENDCHAR
STARTCHAR fl
ENCODING 64258
SWIDTH 659 0
DWIDTH 7 0
BBX 6 8 0 0
BITMAP
34
64
F4
F4
64
64
64
64
ENDCHAR
STARTCHAR .notdef
ENCODING -1
SWIDTH 500 0
DWIDTH 6 0
BBX 6 8 0 0
BITMAP
FC
A4
D4
94
A4
A4
A4
FC
ENDCHAR
STARTCHAR uni004A0301
ENCODING -1
SWIDTH 695 0
DWIDTH 8 0
BBX 7 10 1 0
BITMAP
46
88
8C
8C
8C
8C
8C
8C
8C
98
ENDCHAR
STARTCHAR Y.loclGUA
ENCODING -1
SWIDTH 626 0
DWIDTH 7 0
BBX 6 8 0 0
BITMAP
C4
C4
C4
C4
4C
7C
10
10
ENDCHAR
STARTCHAR Yacute.loclGUA
ENCODING -1
SWIDTH 626 0
DWIDTH 7 0
BBX 6 10 0 0
BITMAP
18
10
C4
C4
C4
C4
4C
7C
10
10
ENDCHAR
STARTCHAR Ycircumflex.loclGUA
ENCODING -1
SWIDTH 626 0
DWIDTH 7 0
BBX 6 10 0 0
BITMAP
30
28
C4
C4
C4
C4
4C
7C
10
10
ENDCHAR
STARTCHAR Ydieresis.loclGUA
ENCODING -1
SWIDTH 626 0
DWIDTH 7 0
BBX 6 10 0 0
BITMAP
28
00
C4
C4
C4
C4
4C
7C
10
10
ENDCHAR
STARTCHAR uni1EF4.loclGUA
ENCODING -1
SWIDTH 626 0
DWIDTH 7 0
BBX 6 10 0 -2
BITMAP
C4
C4
C4
C4
4C
7C
10
10
00
10
ENDCHAR
STARTCHAR Ygrave.loclGUA
ENCODING -1
SWIDTH 626 0
DWIDTH 7 0
BBX 6 10 0 0
BITMAP
20
10
C4
C4
C4
C4
4C
7C
10
10
ENDCHAR
STARTCHAR uni1EF6.loclGUA
ENCODING -1
SWIDTH 626 0
DWIDTH 7 0
BBX 6 11 0 0
BITMAP
30
08
10
C4
C4
C4
C4
4C
7C
10
10
ENDCHAR
STARTCHAR uni0232.loclGUA
ENCODING -1
SWIDTH 626 0
DWIDTH 7 0
BBX 6 10 0 0
BITMAP
38
00
C4
C4
C4
C4
4C
7C
10
10
ENDCHAR
STARTCHAR uni1EF8.loclGUA
ENCODING -1
SWIDTH 626 0
DWIDTH 7 0
BBX 6 10 0 0
BITMAP
38
40
C4
C4
C4
C4
4C
7C
10
10
ENDCHAR
STARTCHAR Cacute.loclPLK
ENCODING -1
SWIDTH 571 0
DWIDTH 6 0
BBX 5 10 1 0
BITMAP
30
20
78
F8
80
80
80
80
C0
F8
ENDCHAR
STARTCHAR Nacute.loclPLK
ENCODING -1
SWIDTH 723 0
DWIDTH 8 0
BBX 6 10 1 0
BITMAP
10
30
C4
C4
E4
A4
B4
9C
8C
8C
ENDCHAR
STARTCHAR Oacute.loclPLK
ENCODING -1
SWIDTH 707 0
DWIDTH 8 0
BBX 6 10 1 0
BITMAP
10
30
78
FC
8C
84
84
84
CC
F8
ENDCHAR
STARTCHAR Sacute.loclPLK
ENCODING -1
SWIDTH 620 0
DWIDTH 7 0
BBX 5 10 1 0
BITMAP
30
20
78
F8
80
E0
F8
08
08
F8
ENDCHAR
STARTCHAR Zacute.loclPLK
ENCODING -1
SWIDTH 611 0
DWIDTH 7 0
BBX 5 10 1 0
BITMAP
30
20
F8
F8
18
30
60
C0
C0
F8
ENDCHAR
STARTCHAR A.ss01
ENCODING -1
SWIDTH 698 0
DWIDTH 8 0
BBX 6 8 1 0
BITMAP
70
FC
8C
8C
FC
FC
8C
8C
ENDCHAR
STARTCHAR Aacute.ss01
ENCODING -1
SWIDTH 698 0
DWIDTH 8 0
BBX 6 10 1 0
BITMAP
18
20
70
FC
8C
8C
FC
FC
8C
8C
ENDCHAR
STARTCHAR Abreve.ss01
ENCODING -1
SWIDTH 698 0
DWIDTH 8 0
BBX 6 10 1 0
BITMAP
48
30
70
FC
8C
8C
FC
FC
8C
8C
ENDCHAR
STARTCHAR uni1EAE.ss01
ENCODING -1
SWIDTH 698 0
DWIDTH 8 0
BBX 6 12 1 0
BITMAP
18
20
48
30
70
FC
8C
8C
FC
FC
8C
8C
ENDCHAR
STARTCHAR uni1EB6.ss01
ENCODING -1
SWIDTH 698 0
DWIDTH 8 0
BBX 6 12 1 -2
BITMAP
48
30
70
FC
8C
8C
FC
FC
8C
8C
00
20
ENDCHAR
STARTCHAR uni1EB0.ss01
ENCODING -1
SWIDTH 698 0
DWIDTH 8 0
BBX 6 12 1 0
BITMAP
60
30
48
30
70
FC
8C
8C
FC
FC
8C
8C
ENDCHAR
STARTCHAR uni1EB2.ss01
ENCODING -1
SWIDTH 698 0
DWIDTH 8 0
BBX 6 12 1 0
BITMAP
70
20
48
30
70
FC
8C
8C
FC
FC
8C
8C
ENDCHAR
STARTCHAR uni1EB4.ss01
ENCODING -1
SWIDTH 698 0
DWIDTH 8 0
BBX 6 12 1 0
BITMAP
68
50
48
30
70
FC
8C
8C
FC
FC
8C
8C
ENDCHAR
STARTCHAR uni01CD.ss01
ENCODING -1
SWIDTH 698 0
DWIDTH 8 0
BBX 6 10 1 0
BITMAP
58
30
70
FC
8C
8C
FC
FC
8C
8C
ENDCHAR
STARTCHAR Acircumflex.ss01
ENCODING -1
SWIDTH 698 0
DWIDTH 8 0
BBX 6 10 1 0
BITMAP
30
48
70
FC
8C
8C
FC
FC
8C
8C
ENDCHAR
STARTCHAR uni1EA4.ss01
ENCODING -1
SWIDTH 698 0
DWIDTH 8 0
BBX 6 12 1 0
BITMAP
18
20
30
48
70
FC
8C
8C
FC
FC
8C
8C
ENDCHAR
STARTCHAR uni1EAC.ss01
ENCODING -1
SWIDTH 698 0
DWIDTH 8 0
BBX 6 12 1 -2
BITMAP
30
48
70
FC
8C
8C
FC
FC
8C
8C
00
20
ENDCHAR
STARTCHAR uni1EA6.ss01
ENCODING -1
SWIDTH 698 0
DWIDTH 8 0
BBX 6 12 1 0
BITMAP
60
20
30
48
70
FC
8C
8C
FC
FC
8C
8C
ENDCHAR
STARTCHAR uni1EA8.ss01
ENCODING -1
SWIDTH 698 0
DWIDTH 8 0
BBX 6 13 1 0
BITMAP
60
10
20
30
48
70
FC
8C
8C
FC
FC
8C
8C
ENDCHAR
STARTCHAR uni1EAA.ss01
ENCODING -1
SWIDTH 698 0
DWIDTH 8 0
BBX 6 12 1 0
BITMAP
68
50
30
48
70
FC
8C
8C
FC
FC
8C
8C
ENDCHAR
STARTCHAR uni0200.ss01
ENCODING -1
SWIDTH 698 0
DWIDTH 8 0
BBX 6 10 1 0
BITMAP
F0
48
70
FC
8C
8C
FC
FC
8C
8C
ENDCHAR
STARTCHAR Adieresis.ss01
ENCODING -1
SWIDTH 698 0
DWIDTH 8 0
BBX 6 10 1 0
BITMAP
58
00
70
FC
8C
8C
FC
FC
8C
8C
ENDCHAR
STARTCHAR uni1EA0.ss01
ENCODING -1
SWIDTH 698 0
DWIDTH 8 0
BBX 6 10 1 -2
BITMAP
70
FC
8C
8C
FC
FC
8C
8C
00
20
ENDCHAR
STARTCHAR Agrave.ss01
ENCODING -1
SWIDTH 698 0
DWIDTH 8 0
BBX 6 10 1 0
BITMAP
60
20
70
FC
8C
8C
FC
FC
8C
8C
ENDCHAR
STARTCHAR uni1EA2.ss01
ENCODING -1
SWIDTH 698 0
DWIDTH 8 0
BBX 6 11 1 0
BITMAP
70
10
20
70
FC
8C
8C
FC
FC
8C
8C
ENDCHAR
STARTCHAR uni0202.ss01
ENCODING -1
SWIDTH 698 0
DWIDTH 8 0
BBX 6 10 1 0
BITMAP
70
48
70
FC
8C
8C
FC
FC
8C
8C
ENDCHAR
STARTCHAR Amacron.ss01
ENCODING -1
SWIDTH 698 0
DWIDTH 8 0
BBX 6 10 1 0
BITMAP
78
00
70
FC
8C
8C
FC
FC
8C
8C
ENDCHAR
STARTCHAR Aogonek.ss01
ENCODING -1
SWIDTH 698 0
DWIDTH 8 0
BBX 6 10 1 -2
BITMAP
70
FC
8C
8C
FC
FC
8C
8C
08
0C
ENDCHAR
STARTCHAR Aring.ss01
ENCODING -1
SWIDTH 698 0
DWIDTH 8 0
BBX 6 11 1 0
BITMAP
30
50
30
70
FC
8C
8C
FC
FC
8C
8C
ENDCHAR
STARTCHAR Aringacute.ss01
ENCODING -1
SWIDTH 698 0
DWIDTH 8 0
BBX 6 13 1 0
BITMAP
18
20
30
50
30
70
FC
8C
8C
FC
FC
8C
8C
ENDCHAR
STARTCHAR Atilde.ss01
ENCODING -1
SWIDTH 698 0
DWIDTH 8 0
BBX 6 10 1 0
BITMAP
78
40
70
FC
8C
8C
FC
FC
8C
8C
ENDCHAR
STARTCHAR G.ss01
ENCODING -1
SWIDTH 688 0
DWIDTH 8 0
BBX 6 8 1 0
BITMAP
78
FC
80
80
9C
8C
CC
F8
ENDCHAR
STARTCHAR uni01F4.ss01
ENCODING -1
SWIDTH 688 0
DWIDTH 8 0
BBX 6 10 1 0
BITMAP
18
20
78
FC
80
80
9C
8C
CC
F8
ENDCHAR
STARTCHAR Gbreve.ss01
ENCODING -1
SWIDTH 688 0
DWIDTH 8 0
BBX 6 10 1 0
BITMAP
50
30
78
FC
80
80
9C
8C
CC
F8
ENDCHAR
STARTCHAR Gcaron.ss01
ENCODING -1
SWIDTH 688 0
DWIDTH 8 0
BBX 6 10 1 0
BITMAP
58
30
78
FC
80
80
9C
8C
CC
F8
ENDCHAR
STARTCHAR Gcircumflex.ss01
ENCODING -1
SWIDTH 688 0
DWIDTH 8 0
BBX 6 10 1 0
BITMAP
30
48
78
FC
80
80
9C
8C
CC
F8
ENDCHAR
STARTCHAR uni0122.ss01
ENCODING -1
SWIDTH 688 0
DWIDTH 8 0
BBX 6 11 1 -3
BITMAP
78
FC
80
80
9C
8C
CC
F8
00
30
30
ENDCHAR
STARTCHAR Gdotaccent.ss01
ENCODING -1
SWIDTH 688 0
DWIDTH 8 0
BBX 6 10 1 0
BITMAP
20
00
78
FC
80
80
9C
8C
CC
F8
ENDCHAR
STARTCHAR R.ss01
ENCODING -1
SWIDTH 681 0
DWIDTH 7 0
BBX 6 8 1 0
BITMAP
F0
FC
8C
8C
F8
8C
8C
8C
ENDCHAR
STARTCHAR Racute.ss01
ENCODING -1
SWIDTH 681 0
DWIDTH 7 0
BBX 6 10 1 0
BITMAP
10
20
F0
FC
8C
8C
F8
8C
8C
8C
ENDCHAR
STARTCHAR Rcaron.ss01
ENCODING -1
SWIDTH 681 0
DWIDTH 7 0
BBX 6 10 1 0
BITMAP
58
30
F0
FC
8C
8C
F8
8C
8C
8C
ENDCHAR
STARTCHAR uni0156.ss01
ENCODING -1
SWIDTH 681 0
DWIDTH 7 0
BBX 6 11 1 -3
BITMAP
F0
FC
8C
8C
F8
8C
8C
8C
00
30
30
ENDCHAR
STARTCHAR uni0210.ss01
ENCODING -1
SWIDTH 681 0
DWIDTH 7 0
BBX 6 10 1 0
BITMAP
F0
50
F0
FC
8C
8C
F8
8C
8C
8C
ENDCHAR
STARTCHAR uni1E5A.ss01
ENCODING -1
SWIDTH 681 0
DWIDTH 7 0
BBX 6 10 1 -2
BITMAP
F0
FC
8C
8C
F8
8C
8C
8C
00
20
ENDCHAR
STARTCHAR uni0212.ss01
ENCODING -1
SWIDTH 681 0
DWIDTH 7 0
BBX 6 10 1 0
BITMAP
70
50
F0
FC
8C
8C
F8
8C
8C
8C
ENDCHAR
STARTCHAR i.loclTRK
ENCODING -1
SWIDTH 275 0
DWIDTH 3 0
BBX 1 8 1 0
BITMAP
80
00
80
80
80
80
80
80
ENDCHAR
STARTCHAR uni006A0301
ENCODING -1
SWIDTH 275 0
DWIDTH 3 0
BBX 3 10 0 -2
BITMAP
60
C0
40
40
40
40
40
40
40
C0
ENDCHAR
STARTCHAR y.loclGUA
ENCODING -1
SWIDTH 541 0
DWIDTH 6 0
BBX 6 8 0 -2
BITMAP
CC
48
48
78
30
30
30
20
ENDCHAR
STARTCHAR yacute.loclGUA
ENCODING -1
SWIDTH 541 0
DWIDTH 6 0
BBX 6 10 0 -2
BITMAP
10
20
CC
48
48
78
30
30
30
20
ENDCHAR
STARTCHAR ycircumflex.loclGUA
ENCODING -1
SWIDTH 541 0
DWIDTH 6 0
BBX 6 10 0 -2
BITMAP
30
48
CC
48
48
78
30
30
30
20
ENDCHAR
STARTCHAR ydieresis.loclGUA
ENCODING -1
SWIDTH 541 0
DWIDTH 6 0
BBX 6 10 0 -2
BITMAP
58
00
CC
48
48
78
30
30
30
20
ENDCHAR
STARTCHAR uni1EF5.loclGUA
ENCODING -1
SWIDTH 541 0
DWIDTH 6 0
BBX 6 8 0 -2
BITMAP
CC
48
48
78
30
30
30
24
ENDCHAR
STARTCHAR ygrave.loclGUA
ENCODING -1
SWIDTH 541 0
DWIDTH 6 0
BBX 6 10 0 -2
BITMAP
60
10
CC
48
48
78
30
30
30
20
ENDCHAR
STARTCHAR uni1EF7.loclGUA
ENCODING -1
SWIDTH 541 0
DWIDTH 6 0
BBX 6 11 0 -2
BITMAP
30
08
30
CC
48
48
78
30
30
30
20
ENDCHAR
STARTCHAR uni0233.loclGUA
ENCODING -1
SWIDTH 541 0
DWIDTH 6 0
BBX 6 10 0 -2
BITMAP
78
00
CC
48
48
78
30
30
30
20
ENDCHAR
STARTCHAR uni1EF9.loclGUA
ENCODING -1
SWIDTH 541 0
DWIDTH 6 0
BBX 6 10 0 -2
BITMAP
78
40
CC
48
48
78
30
30
30
20
ENDCHAR
STARTCHAR cacute.loclPLK
ENCODING -1
SWIDTH 462 0
DWIDTH 5 0
BBX 4 8 1 0
BITMAP
30
20
70
D0
80
80
80
F0
ENDCHAR
STARTCHAR nacute.loclPLK
ENCODING -1
SWIDTH 593 0
DWIDTH 7 0
BBX 5 8 1 0
BITMAP
30
20
B0
F8
98
98
98
98
ENDCHAR
STARTCHAR oacute.loclPLK
ENCODING -1
SWIDTH 574 0
DWIDTH 6 0
BBX 5 8 1 0
BITMAP
30
20
70
F8
98
98
98
F0
ENDCHAR
STARTCHAR sacute.loclPLK
ENCODING -1
SWIDTH 499 0
DWIDTH 5 0
BBX 5 8 0 0
BITMAP
18
10
78
48
C0
78
08
78
ENDCHAR
STARTCHAR zacute.loclPLK
ENCODING -1
SWIDTH 521 0
DWIDTH 6 0
BBX 4 8 1 0
BITMAP
30
20
F0
F0
20
40
C0
F0
ENDCHAR
STARTCHAR f_f
ENCODING -1
SWIDTH 739 0
DWIDTH 8 0
BBX 8 8 0 0
BITMAP
37
64
FF
FF
64
64
64
64
ENDCHAR
STARTCHAR f_f_i
ENCODING -1
SWIDTH 1014 0
DWIDTH 11 0
BBX 10 8 0 0
BITMAP
3740
6400
FF40
FF40
6440
6440
6440
6440
ENDCHAR
STARTCHAR f_f_l
ENCODING -1
SWIDTH 994 0
DWIDTH 11 0
BBX 10 8 0 0
BITMAP
3740
6440
FF40
FF40
6440
6440
6440
6440
ENDCHAR
STARTCHAR zero.zero
ENCODING -1
SWIDTH 666 0
DWIDTH 7 0
BBX 6 8 1 0
BITMAP
70
F8
8C
8C
FC
8C
8C
F8
ENDCHAR
STARTCHAR zero.lf
ENCODING -1
SWIDTH 666 0
DWIDTH 7 0
BBX 6 8 1 0
BITMAP
70
F8
8C
8C
8C
8C
8C
F8
ENDCHAR
STARTCHAR one.lf
ENCODING -1
SWIDTH 389 0
DWIDTH 4 0
BBX 3 8 0 0
BITMAP
20
E0
A0
20
20
20
20
20
ENDCHAR
STARTCHAR two.lf
ENCODING -1
SWIDTH 611 0
DWIDTH 7 0
BBX 5 8 1 0
BITMAP
F0
F8
18
18
F0
C0
80
F8
ENDCHAR
STARTCHAR three.lf
ENCODING -1
SWIDTH 607 0
DWIDTH 7 0
BBX 5 8 1 0
BITMAP
E0
F8
18
18
70
18
18
F0
ENDCHAR
STARTCHAR four.lf
ENCODING -1
SWIDTH 647 0
DWIDTH 7 0
BBX 7 8 0 0
BITMAP
18
10
30
64
4C
FE
0C
0C
ENDCHAR
STARTCHAR five.lf
ENCODING -1
SWIDTH 623 0
DWIDTH 7 0
BBX 5 8 1 0
BITMAP
F8
F8
80
F0
F8
08
18
F8
ENDCHAR
STARTCHAR six.lf
ENCODING -1
SWIDTH 664 0
DWIDTH 7 0
BBX 6 8 1 0
BITMAP
78
F8
80
B8
FC
8C
8C
F8
ENDCHAR
STARTCHAR seven.lf
ENCODING -1
SWIDTH 569 0
DWIDTH 6 0
BBX 6 8 0 0
BITMAP
FC
FC
08
18
18
30
30
60
ENDCHAR
STARTCHAR eight.lf
ENCODING -1
SWIDTH 682 0
DWIDTH 8 0
BBX 6 8 1 0
BITMAP
70
FC
8C
C8
F8
8C
8C
F8
ENDCHAR
STARTCHAR nine.lf
ENCODING -1
SWIDTH 664 0
DWIDTH 7 0
BBX 6 8 1 0
BITMAP
70
F8
8C
8C
FC
0C
08
F8
ENDCHAR
STARTCHAR zero.osf
ENCODING -1
SWIDTH 620 0
DWIDTH 7 0
BBX 5 7 1 0
BITMAP
20
F8
88
88
88
88
F8
ENDCHAR
STARTCHAR one.osf
ENCODING -1
SWIDTH 620 0
DWIDTH 7 0
BBX 5 6 1 0
BITMAP
E0
A0
20
20
20
F8
ENDCHAR
STARTCHAR two.osf
ENCODING -1
SWIDTH 620 0
DWIDTH 7 0
BBX 5 7 1 0
BITMAP
20
F8
18
38
E0
80
F8
ENDCHAR
STARTCHAR three.osf
ENCODING -1
SWIDTH 620 0
DWIDTH 7 0
BBX 5 7 1 0
BITMAP
20
F8
18
70
18
18
F0
ENDCHAR
STARTCHAR four.osf
ENCODING -1
SWIDTH 620 0
DWIDTH 7 0
BBX 5 6 1 0
BITMAP
70
40
D0
90
F8
10
ENDCHAR
STARTCHAR five.osf
ENCODING -1
SWIDTH 620 0
DWIDTH 7 0
BBX 5 6 1 0
BITMAP
F0
80
F8
18
18
F0
ENDCHAR
STARTCHAR six.osf
ENCODING -1
SWIDTH 620 0
DWIDTH 7 0
BBX 5 7 1 0
BITMAP
20
F8
80
F8
88
88
F8
ENDCHAR
STARTCHAR seven.osf
ENCODING -1
SWIDTH 620 0
DWIDTH 7 0
BBX 5 6 1 0
BITMAP
F8
18
10
30
60
60
ENDCHAR
STARTCHAR eight.osf
ENCODING -1
SWIDTH 620 0
DWIDTH 7 0
BBX 5 7 1 0
BITMAP
20
F8
88
F8
88
88
F8
ENDCHAR
STARTCHAR nine.osf
ENCODING -1
SWIDTH 620 0
DWIDTH 7 0
BBX 5 7 1 0
BITMAP
20
F8
88
F8
68
18
F0
ENDCHAR
STARTCHAR four.ss01
ENCODING -1
SWIDTH 649 0
DWIDTH 7 0
BBX 7 8 0 0
BITMAP
0C
1C
3C
2C
4C
FE
0C
0C
ENDCHAR
STARTCHAR six.ss01
ENCODING -1
SWIDTH 651 0
DWIDTH 7 0
BBX 7 8 0 0
BITMAP
18
30
20
7C
7E
C6
46
7C
ENDCHAR
STARTCHAR nine.ss01
ENCODING -1
SWIDTH 651 0
DWIDTH 7 0
BBX 7 8 0 0
BITMAP
38
7C
C6
46
7C
0C
18
30
ENDCHAR
STARTCHAR zero.tf
ENCODING -1
SWIDTH 620 0
DWIDTH 7 0
BBX 6 8 0 0
BITMAP
38
7C
C4
C4
C4
C4
44
7C
ENDCHAR
STARTCHAR one.tf
ENCODING -1
SWIDTH 620 0
DWIDTH 7 0
BBX 5 8 1 0
BITMAP
20
E0
A0
20
20
20
20
F8
ENDCHAR
STARTCHAR two.tf
ENCODING -1
SWIDTH 620 0
DWIDTH 7 0
BBX 5 8 1 0
BITMAP
F0
F8
08
18
70
C0
80
F8
ENDCHAR
STARTCHAR three.tf
ENCODING -1
SWIDTH 620 0
DWIDTH 7 0
BBX 5 8 1 0
BITMAP
F0
F8
18
18
78
18
18
F8
ENDCHAR
STARTCHAR four.tf
ENCODING -1
SWIDTH 620 0
DWIDTH 7 0
BBX 7 8 0 0
BITMAP
18
30
30
6C
4C
FE
0C
0C
ENDCHAR
STARTCHAR five.tf
ENCODING -1
SWIDTH 620 0
DWIDTH 7 0
BBX 5 8 1 0
BITMAP
F8
F8
80
F0
F8
08
18
F8
ENDCHAR
STARTCHAR six.tf
ENCODING -1
SWIDTH 620 0
DWIDTH 7 0
BBX 6 8 1 0
BITMAP
78
F8
80
B0
F8
8C
88
F8
ENDCHAR
STARTCHAR seven.tf
ENCODING -1
SWIDTH 620 0
DWIDTH 7 0
BBX 5 8 1 0
BITMAP
F8
F8
18
10
30
20
60
60
ENDCHAR
STARTCHAR eight.tf
ENCODING -1
SWIDTH 620 0
DWIDTH 7 0
BBX 6 8 0 0
BITMAP
38
7C
C4
6C
7C
C4
C4
7C
ENDCHAR
STARTCHAR nine.tf
ENCODING -1
SWIDTH 620 0
DWIDTH 7 0
BBX 6 8 0 0
BITMAP
38
7C
C4
C4
7C
04
0C
7C
ENDCHAR
STARTCHAR zero.tosf
ENCODING -1
SWIDTH 620 0
DWIDTH 7 0
BBX 5 7 1 0
BITMAP
20
F8
88
88
88
88
F8
ENDCHAR
STARTCHAR one.tosf
ENCODING -1
SWIDTH 620 0
DWIDTH 7 0
BBX 5 6 1 0
BITMAP
E0
A0
20
20
20
F8
ENDCHAR
STARTCHAR two.tosf
ENCODING -1
SWIDTH 620 0
DWIDTH 7 0
BBX 5 7 1 0
BITMAP
20
F8
18
38
E0
80
F8
ENDCHAR
STARTCHAR three.tosf
ENCODING -1
SWIDTH 620 0
DWIDTH 7 0
BBX 5 7 1 0
BITMAP
20
F8
18
70
18
18
F0
ENDCHAR
STARTCHAR four.tosf
ENCODING -1
SWIDTH 620 0
DWIDTH 7 0
BBX 5 6 1 0
BITMAP
70
40
D0
90
F8
10
ENDCHAR
STARTCHAR five.tosf
ENCODING -1
SWIDTH 620 0
DWIDTH 7 0
BBX 5 6 1 0
BITMAP
F0
80
F8
18
18
F0
ENDCHAR
STARTCHAR six.tosf
ENCODING -1
SWIDTH 620 0
DWIDTH 7 0
BBX 5 7 1 0
BITMAP
20
F8
80
F8
88
88
F8
ENDCHAR
STARTCHAR seven.tosf
ENCODING -1
SWIDTH 620 0
DWIDTH 7 0
BBX 5 6 1 0
BITMAP
F8
18
10
30
60
60
ENDCHAR
STARTCHAR eight.tosf
ENCODING -1
SWIDTH 620 0
DWIDTH 7 0
BBX 5 7 1 0
BITMAP
20
F8
88
F8
88
88
F8
ENDCHAR
STARTCHAR nine.tosf
ENCODING -1
SWIDTH 620 0
DWIDTH 7 0
BBX 5 7 1 0
BITMAP
20
F8
88
F8
68
18
F0
ENDCHAR
STARTCHAR zero.lf.zero
ENCODING -1
SWIDTH 666 0
DWIDTH 7 0
BBX 6 8 1 0
BITMAP
70
F8
8C
8C
FC
8C
8C
F8
ENDCHAR
STARTCHAR zero.osf.zero
ENCODING -1
SWIDTH 620 0
DWIDTH 7 0
BBX 5 7 1 0
BITMAP
20
F8
88
F8
88
88
F8
ENDCHAR
STARTCHAR zero.tf.zero
ENCODING -1
SWIDTH 620 0
DWIDTH 7 0
BBX 6 8 0 0
BITMAP
38
7C
C4
C4
FC
C4
44
7C
ENDCHAR
STARTCHAR zero.tosf.zero
ENCODING -1
SWIDTH 620 0
DWIDTH 7 0
BBX 5 7 1 0
BITMAP
20
F8
88
F8
88
88
F8
ENDCHAR
STARTCHAR zero.dnom
ENCODING -1
SWIDTH 383 0
DWIDTH 4 0
BBX 4 4 0 0
BITMAP
70
90
90
70
ENDCHAR
STARTCHAR one.dnom
ENCODING -1
SWIDTH 229 0
DWIDTH 3 0
BBX 2 4 0 0
BITMAP
C0
40
40
40
ENDCHAR
STARTCHAR two.dnom
ENCODING -1
SWIDTH 353 0
DWIDTH 4 0
BBX 3 4 0 0
BITMAP
E0
20
C0
E0
ENDCHAR
STARTCHAR three.dnom
ENCODING -1
SWIDTH 350 0
DWIDTH 4 0
BBX 3 4 0 0
BITMAP
E0
60
20
E0
ENDCHAR
STARTCHAR four.dnom
ENCODING -1
SWIDTH 369 0
DWIDTH 4 0
BBX 4 4 0 0
BITMAP
60
60
F0
20
ENDCHAR
STARTCHAR five.dnom
ENCODING -1
SWIDTH 361 0
DWIDTH 4 0
BBX 4 4 0 0
BITMAP
60
60
10
E0
ENDCHAR
STARTCHAR six.dnom
ENCODING -1
SWIDTH 378 0
DWIDTH 4 0
BBX 4 4 0 0
BITMAP
70
E0
90
70
ENDCHAR
STARTCHAR seven.dnom
ENCODING -1
SWIDTH 328 0
DWIDTH 4 0
BBX 3 4 0 0
BITMAP
E0
20
40
40
ENDCHAR
STARTCHAR eight.dnom
ENCODING -1
SWIDTH 392 0
DWIDTH 4 0
BBX 4 4 0 0
BITMAP
F0
70
90
70
ENDCHAR
STARTCHAR nine.dnom
ENCODING -1
SWIDTH 378 0
DWIDTH 4 0
BBX 4 4 0 0
BITMAP
F0
B0
50
60
ENDCHAR
STARTCHAR zero.numr
ENCODING -1
SWIDTH 383 0
DWIDTH 4 0
BBX 4 5 0 3
BITMAP
60
90
90
90
60
ENDCHAR
STARTCHAR one.numr
ENCODING -1
SWIDTH 229 0
DWIDTH 3 0
BBX 2 5 0 3
BITMAP
40
C0
40
40
40
ENDCHAR
STARTCHAR two.numr
ENCODING -1
SWIDTH 353 0
DWIDTH 4 0
BBX 3 5 0 3
BITMAP
E0
20
60
80
E0
ENDCHAR
STARTCHAR three.numr
ENCODING -1
SWIDTH 350 0
DWIDTH 4 0
BBX 3 5 0 3
BITMAP
E0
20
60
20
E0
ENDCHAR
STARTCHAR four.numr
ENCODING -1
SWIDTH 369 0
DWIDTH 4 0
BBX 4 5 0 3
BITMAP
20
40
60
F0
20
ENDCHAR
STARTCHAR five.numr
ENCODING -1
SWIDTH 361 0
DWIDTH 4 0
BBX 4 5 0 3
BITMAP
60
80
60
10
E0
ENDCHAR
STARTCHAR six.numr
ENCODING -1
SWIDTH 378 0
DWIDTH 4 0
BBX 4 5 0 3
BITMAP
70
80
F0
90
60
ENDCHAR
STARTCHAR seven.numr
ENCODING -1
SWIDTH 328 0
DWIDTH 4 0
BBX 3 5 0 3
BITMAP
E0
20
20
40
40
ENDCHAR
STARTCHAR eight.numr
ENCODING -1
SWIDTH 392 0
DWIDTH 4 0
BBX 4 5 0 3
BITMAP
60
90
60
90
60
ENDCHAR
STARTCHAR nine.numr
ENCODING -1
SWIDTH 378 0
DWIDTH 4 0
BBX 4 5 0 3
BITMAP
60
90
F0
10
60
ENDCHAR
STARTCHAR exclam.case
ENCODING -1
SWIDTH 303 0
DWIDTH 3 0
BBX 2 8 1 0
BITMAP
C0
C0
C0
80
80
80
00
C0
ENDCHAR
STARTCHAR exclamdown.case
ENCODING -1
SWIDTH 290 0
DWIDTH 3 0
BBX 1 8 1 0
BITMAP
80
80
00
80
80
80
80
80
ENDCHAR
STARTCHAR question.case
ENCODING -1
SWIDTH 511 0
DWIDTH 6 0
BBX 5 8 0 0
BITMAP
70
F8
18
38
20
20
00
60
ENDCHAR
STARTCHAR questiondown.case
ENCODING -1
SWIDTH 511 0
DWIDTH 6 0
BBX 4 8 1 0
BITMAP
20
20
00
20
E0
80
80
F0
ENDCHAR
STARTCHAR periodcentered.loclCAT
ENCODING -1
SWIDTH 124 0
DWIDTH 1 0
BBX 1 1 0 3
BITMAP
80
ENDCHAR
STARTCHAR exclam.ss02
ENCODING -1
SWIDTH 794 0
DWIDTH 9 0
BBX 8 8 0 0
BITMAP
1C
62
49
89
89
81
49
3E
ENDCHAR
STARTCHAR bullet.ss02
ENCODING -1
SWIDTH 783 0
DWIDTH 9 0
BBX 8 8 0 0
BITMAP
08
14
14
6F
D5
3A
14
18
ENDCHAR
STARTCHAR asterisk.ss02
ENCODING -1
SWIDTH 817 0
DWIDTH 9 0
BBX 9 8 0 0
BITMAP
0800
0800
0800
FF80
3E00
1C00
3600
2200
ENDCHAR
STARTCHAR periodcentered.loclCAT.case
ENCODING -1
SWIDTH 124 0
DWIDTH 1 0
BBX 1 1 0 3
BITMAP
80
ENDCHAR
STARTCHAR parenleft.ss02
ENCODING -1
SWIDTH 397 0
DWIDTH 4 0
BBX 4 8 0 0
BITMAP
10
70
70
70
F0
70
70
30
ENDCHAR
STARTCHAR parenright.ss02
ENCODING -1
SWIDTH 397 0
DWIDTH 4 0
BBX 4 8 0 0
BITMAP
80
E0
F0
F0
F0
F0
E0
C0
ENDCHAR
STARTCHAR bracketleft.ss02
ENCODING -1
SWIDTH 397 0
DWIDTH 4 0
BBX 4 8 0 0
BITMAP
10
70
70
70
F0
F0
F0
F0
ENDCHAR
STARTCHAR bracketright.ss02
ENCODING -1
SWIDTH 397 0
DWIDTH 4 0
BBX 4 8 0 0
BITMAP
80
E0
F0
F0
F0
F0
F0
F0
ENDCHAR
STARTCHAR bar.ss02
ENCODING -1
SWIDTH 498 0
DWIDTH 5 0
BBX 5 8 0 0
BITMAP
F8
F8
F8
F8
F8
F8
F8
F8
ENDCHAR
STARTCHAR arrowup.ss01
ENCODING -1
SWIDTH 345 0
DWIDTH 4 0
BBX 3 3 0 3
BITMAP
40
40
E0
ENDCHAR
STARTCHAR arrowright.ss01
ENCODING -1
SWIDTH 363 0
DWIDTH 4 0
BBX 3 3 1 2
BITMAP
80
E0
80
ENDCHAR
STARTCHAR arrowdown.ss01
ENCODING -1
SWIDTH 345 0
DWIDTH 4 0
BBX 3 3 0 2
BITMAP
E0
60
40
ENDCHAR
STARTCHAR arrowleft.ss01
ENCODING -1
SWIDTH 363 0
DWIDTH 4 0
BBX 3 3 0 2
BITMAP
20
E0
20
ENDCHAR
STARTCHAR uni03060301
ENCODING -1
SWIDTH 0 0
DWIDTH 0 0
BBX 3 4 0 6
BITMAP
60
40
A0
60
ENDCHAR
STARTCHAR uni03060300
ENCODING -1
SWIDTH 0 0
DWIDTH 0 0
BBX 3 4 0 6
BITMAP
C0
40
A0
60
ENDCHAR
STARTCHAR uni03060309
ENCODING -1
SWIDTH 0 0
DWIDTH 0 0
BBX 3 4 0 6
BITMAP
E0
40
A0
60
ENDCHAR
STARTCHAR uni03060303
ENCODING -1
SWIDTH 0 0
DWIDTH 0 0
BBX 4 4 0 6
BITMAP
D0
B0
90
60
ENDCHAR
STARTCHAR uni03020301
ENCODING -1
SWIDTH 0 0
DWIDTH 0 0
BBX 4 4 0 6
BITMAP
60
40
60
B0
ENDCHAR
STARTCHAR uni03020300
ENCODING -1
SWIDTH 0 0
DWIDTH 0 0
BBX 4 4 0 6
BITMAP
C0
40
60
B0
ENDCHAR
STARTCHAR uni03020309
ENCODING -1
SWIDTH 0 0
DWIDTH 0 0
BBX 4 5 0 6
BITMAP
C0
20
40
60
B0
ENDCHAR
STARTCHAR uni03020303
ENCODING -1
SWIDTH 0 0
DWIDTH 0 0
BBX 4 4 0 6
BITMAP
F0
A0
60
90
ENDCHAR
STARTCHAR uni030C.alt
ENCODING -1
SWIDTH 0 0
DWIDTH 0 0
BBX 2 3 0 5
BITMAP
C0
C0
80
ENDCHAR
STARTCHAR uni0308.case
ENCODING -1
SWIDTH 0 0
DWIDTH 0 0
BBX 4 1 0 7
BITMAP
B0
ENDCHAR
STARTCHAR uni0307.case
ENCODING -1
SWIDTH 0 0
DWIDTH 0 0
BBX 1 1 0 7
BITMAP
80
ENDCHAR
STARTCHAR gravecomb.case
ENCODING -1
SWIDTH 0 0
DWIDTH 0 0
BBX 3 2 0 6
BITMAP
C0
60
ENDCHAR
STARTCHAR acutecomb.case
ENCODING -1
SWIDTH 0 0
DWIDTH 0 0
BBX 3 2 0 6
BITMAP
60
80
ENDCHAR
STARTCHAR uni030B.case
ENCODING -1
SWIDTH 0 0
DWIDTH 0 0
BBX 4 2 0 6
BITMAP
50
A0
ENDCHAR
STARTCHAR uni0302.case
ENCODING -1
SWIDTH 0 0
DWIDTH 0 0
BBX 4 2 0 6
BITMAP
60
B0
ENDCHAR
STARTCHAR uni03020300.case
ENCODING -1
SWIDTH 0 0
DWIDTH 0 0
BBX 4 4 0 6
BITMAP
C0
40
60
B0
ENDCHAR
STARTCHAR uni03020301.case
ENCODING -1
SWIDTH 0 0
DWIDTH 0 0
BBX 4 4 0 6
BITMAP
20
40
60
B0
ENDCHAR
STARTCHAR uni03020303.case
ENCODING -1
SWIDTH 0 0
DWIDTH 0 0
BBX 4 4 0 6
BITMAP
D0
A0
60
B0
ENDCHAR
STARTCHAR uni03020309.case
ENCODING -1
SWIDTH 0 0
DWIDTH 0 0
BBX 4 5 0 6
BITMAP
C0
20
40
60
B0
ENDCHAR
STARTCHAR uni030C.case
ENCODING -1
SWIDTH 0 0
DWIDTH 0 0
BBX 4 2 0 6
BITMAP
B0
60
ENDCHAR
STARTCHAR uni0306.case
ENCODING -1
SWIDTH 0 0
DWIDTH 0 0
BBX 3 2 0 6
BITMAP
A0
60
ENDCHAR
STARTCHAR uni03060300.case
ENCODING -1
SWIDTH 0 0
DWIDTH 0 0
BBX 3 4 0 6
BITMAP
C0
40
A0
60
ENDCHAR
STARTCHAR uni03060301.case
ENCODING -1
SWIDTH 0 0
DWIDTH 0 0
BBX 3 4 0 6
BITMAP
20
40
A0
60
ENDCHAR
STARTCHAR uni03060303.case
ENCODING -1
SWIDTH 0 0
DWIDTH 0 0
BBX 4 4 0 6
BITMAP
D0
A0
A0
60
ENDCHAR
STARTCHAR uni03060309.case
ENCODING -1
SWIDTH 0 0
DWIDTH 0 0
BBX 3 4 0 6
BITMAP
E0
40
A0
60
ENDCHAR
STARTCHAR uni030A.case
ENCODING -1
SWIDTH 0 0
DWIDTH 0 0
BBX 3 3 0 6
BITMAP
E0
A0
E0
ENDCHAR
STARTCHAR tildecomb.case
ENCODING -1
SWIDTH 0 0
DWIDTH 0 0
BBX 4 2 0 6
BITMAP
F0
80
ENDCHAR
STARTCHAR uni0304.case
ENCODING -1
SWIDTH 0 0
DWIDTH 0 0
BBX 3 1 0 7
BITMAP
E0
ENDCHAR
STARTCHAR hookabovecomb.case
ENCODING -1
SWIDTH 0 0
DWIDTH 0 0
BBX 3 3 0 6
BITMAP
C0
20
40
ENDCHAR
STARTCHAR uni030F.case
ENCODING -1
SWIDTH 0 0
DWIDTH 0 0
BBX 4 2 0 6
BITMAP
B0
50
ENDCHAR
STARTCHAR uni0311.case
ENCODING -1
SWIDTH 0 0
DWIDTH 0 0
BBX 3 2 0 6
BITMAP
E0
A0
ENDCHAR
STARTCHAR uni0312.case
ENCODING -1
SWIDTH 0 0
DWIDTH 0 0
BBX 2 3 0 6
BITMAP
C0
C0
C0
ENDCHAR
STARTCHAR uni031B.case
ENCODING -1
SWIDTH 0 0
DWIDTH 0 0
BBX 2 2 0 5
BITMAP
40
C0
ENDCHAR
STARTCHAR dotbelowcomb.case
ENCODING -1
SWIDTH 0 0
DWIDTH 0 0
BBX 1 1 0 -2
BITMAP
80
ENDCHAR
STARTCHAR uni0324.case
ENCODING -1
SWIDTH 0 0
DWIDTH 0 0
BBX 4 1 0 -2
BITMAP
B0
ENDCHAR
STARTCHAR uni0326.case
ENCODING -1
SWIDTH 0 0
DWIDTH 0 0
BBX 2 2 0 -3
BITMAP
C0
C0
ENDCHAR
STARTCHAR uni0327.case
ENCODING -1
SWIDTH 0 0
DWIDTH 0 0
BBX 2 2 0 -2
BITMAP
40
80
ENDCHAR
STARTCHAR uni0328.case
ENCODING -1
SWIDTH 0 0
DWIDTH 0 0
BBX 2 2 0 -2
BITMAP
C0
C0
ENDCHAR
STARTCHAR uni032E.case
ENCODING -1
SWIDTH 0 0
DWIDTH 0 0
BBX 3 2 0 -3
BITMAP
A0
40
ENDCHAR
STARTCHAR uni0331.case
ENCODING -1
SWIDTH 0 0
DWIDTH 0 0
BBX 3 1 0 -2
BITMAP
E0
ENDCHAR
STARTCHAR acute.loclPLK
ENCODING -1
SWIDTH 179 0
DWIDTH 2 0
BBX 2 2 0 6
BITMAP
C0
80
ENDCHAR
STARTCHAR acute.case.loclPLK
ENCODING -1
SWIDTH 179 0
DWIDTH 2 0
BBX 2 2 0 8
BITMAP
C0
80
ENDCHAR
STARTCHAR dialog
ENCODING -1
SWIDTH 805 0
DWIDTH 9 0
BBX 7 10 1 -2
BITMAP
FE
82
82
82
82
82
82
CE
10
20
ENDCHAR
STARTCHAR leftOpenDialog
ENCODING -1
SWIDTH 625 0
DWIDTH 7 0
BBX 7 8 0 0
BITMAP
FE
80
80
80
80
80
80
FE
ENDCHAR
STARTCHAR rightCloseDialog
ENCODING -1
SWIDTH 627 0
DWIDTH 7 0
BBX 7 10 0 -2
BITMAP
FE
02
02
02
02
02
02
CE
10
20
ENDCHAR
STARTCHAR rightOpenDialog
ENCODING -1
SWIDTH 626 0
DWIDTH 7 0
BBX 7 8 0 0
BITMAP
FE
02
02
02
02
02
02
FE
ENDCHAR
STARTCHAR orn.001
ENCODING -1
SWIDTH 337 0
DWIDTH 4 0
BBX 2 3 1 2
BITMAP
C0
C0
C0
ENDCHAR
STARTCHAR orn.002
ENCODING -1
SWIDTH 549 0
DWIDTH 6 0
BBX 6 7 0 0
BITMAP
20
60
B8
B4
68
40
20
ENDCHAR
STARTCHAR orn.003
ENCODING -1
SWIDTH 415 0
DWIDTH 5 0
BBX 4 7 0 0
BITMAP
20
60
B0
B0
60
40
20
ENDCHAR
STARTCHAR orn.007
ENCODING -1
SWIDTH 337 0
DWIDTH 4 0
BBX 2 3 1 2
BITMAP
C0
C0
80
ENDCHAR
STARTCHAR orn.010
ENCODING -1
SWIDTH 794 0
DWIDTH 9 0
BBX 8 8 0 0
BITMAP
1C
7E
7F
7F
FF
7F
7F
3F
ENDCHAR
STARTCHAR orn.015
ENCODING -1
SWIDTH 565 0
DWIDTH 6 0
BBX 6 10 0 -2
BITMAP
FC
00
00
00
00
00
00
CC
10
20
ENDCHAR
STARTCHAR orn.016
ENCODING -1
SWIDTH 565 0
DWIDTH 6 0
BBX 6 8 0 0
BITMAP
FC
00
00
00
00
00
00
FC
ENDCHAR
STARTCHAR orn.017
ENCODING -1
SWIDTH 60 0
DWIDTH 1 0
BBX 1 8 0 0
BITMAP
80
80
80
80
80
80
80
80
ENDCHAR
STARTCHAR orn.018
ENCODING -1
SWIDTH 792 0
DWIDTH 9 0
BBX 8 7 0 0
BITMAP
22
65
B7
B7
67
41
22
ENDCHAR
STARTCHAR orn.019
ENCODING -1
SWIDTH 549 0
DWIDTH 6 0
BBX 6 7 0 0
BITMAP
10
18
74
B4
58
08
10
ENDCHAR
STARTCHAR orn.020
ENCODING -1
SWIDTH 415 0
DWIDTH 5 0
BBX 4 7 0 0
BITMAP
20
50
B0
F0
50
20
20
ENDCHAR
STARTCHAR orn.021
ENCODING -1
SWIDTH 753 0
DWIDTH 8 0
BBX 8 9 0 -1
BITMAP
18
7E
7F
7F
FF
7F
7E
3C
18
ENDCHAR
STARTCHAR orn.022
ENCODING -1
SWIDTH 389 0
DWIDTH 4 0
BBX 3 3 1 2
BITMAP
C0
E0
80
ENDCHAR
STARTCHAR Oslash.BRACKET.86
ENCODING -1
SWIDTH 707 0
DWIDTH 8 0
BBX 6 9 1 -1
BITMAP
7C
FC
8C
84
84
84
CC
F8
80
ENDCHAR
STARTCHAR Oslashacute.BRACKET.86
ENCODING -1
SWIDTH 707 0
DWIDTH 8 0
BBX 6 11 1 -1
BITMAP
18
20
7C
FC
8C
84
84
84
CC
F8
80
ENDCHAR
STARTCHAR Q.BRACKET.64
ENCODING -1
SWIDTH 707 0
DWIDTH 8 0
BBX 6 9 1 -1
BITMAP
78
FC
8C
84
84
84
CC
F8
0C
ENDCHAR
STARTCHAR uni20B5.BRACKET.86
ENCODING -1
SWIDTH 571 0
DWIDTH 6 0
BBX 5 9 1 -1
BITMAP
78
F8
80
80
80
80
C0
F8
20
ENDCHAR
STARTCHAR cent.BRACKET.86
ENCODING -1
SWIDTH 468 0
DWIDTH 5 0
BBX 4 8 1 0
BITMAP
20
70
D0
80
80
80
F0
20
ENDCHAR
STARTCHAR colonmonetary.BRACKET.86
ENCODING -1
SWIDTH 571 0
DWIDTH 6 0
BBX 6 9 1 -1
BITMAP
7C
F8
98
A8
A8
B0
F0
F8
50
ENDCHAR
STARTCHAR dollar.BRACKET.64
ENCODING -1
SWIDTH 538 0
DWIDTH 6 0
BBX 4 8 1 0
BITMAP
60
F0
90
80
F0
10
F0
60
ENDCHAR
STARTCHAR uni20B2.BRACKET.64
ENCODING -1
SWIDTH 616 0
DWIDTH 7 0
BBX 5 8 1 0
BITMAP
20
78
C8
80
B8
98
F8
20
ENDCHAR
STARTCHAR oslash.BRACKET.86
ENCODING -1
SWIDTH 574 0
DWIDTH 6 0
BBX 5 7 1 -1
BITMAP
78
F8
98
98
98
F0
80
ENDCHAR
STARTCHAR oslashacute.BRACKET.86
ENCODING -1
SWIDTH 574 0
DWIDTH 6 0
BBX 5 9 1 -1
BITMAP
30
48
70
F8
98
98
98
F0
80
ENDCHAR
STARTCHAR uni20B1.BRACKET.86
ENCODING -1
SWIDTH 647 0
DWIDTH 7 0
BBX 8 8 0 0
BITMAP
78
7C
C7
C7
7C
40
40
40
ENDCHAR
STARTCHAR yen.BRACKET.48
ENCODING -1
SWIDTH 628 0
DWIDTH 7 0
BBX 7 8 0 0
BITMAP
C6
44
6C
6C
38
7C
10
10
ENDCHAR
ENDFONT
